<svg xmlns="http://www.w3.org/2000/svg" viewBox="0 0 500 500"><g id="freepik--Land--inject-350"><g id="freepik--Mountains--inject-350"><g id="freepik--mountains--inject-350"><path d="M462.93,266.82v-56s-87.58-69.49-94.43-69.14c-5.21.27-15,8.15-15,8.15s-31.93-32.27-38.16-33-95.91,90.26-95.91,90.26v59.77Z" style="fill:#e0e0e0"></path><path d="M462.93,266.82v-56s-87.58-69.49-94.43-69.14c-5.21.27-15,8.15-15,8.15s-31.93-32.27-38.16-33-95.91,90.26-95.91,90.26v59.77Z" style="fill:#ebebeb"></path><path d="M353.47,149.82l-12.08,9.09c3.65-2.74,7,1.71,12.08,1.53s8-4.56,12.91-3.18c4,1.12,5.62,2.86,8.46,3.31,5.21.83,3.77-2,6.71-2.62,2-.42,12.17,1.11,16.31,2.84-14.83-10.91-27-19.24-29.36-19.12a8.53,8.53,0,0,0-1.85.35,20.94,20.94,0,0,0-3.53,1.45l-1,.52a63.7,63.7,0,0,0-6.23,4c-1.48,1.07-2.44,1.84-2.44,1.84Z" style="fill:#f5f5f5"></path><path d="M312.81,136.46c3.94.31,10.34,4.1,13,1.71s8.68-6.67,11.3-4.2c-8.87-8.29-18.66-16.8-21.82-17.18-2.08-.26-13.49,9.74-27.74,23.16,6-3.49,10.08.78,13.65,1.72S308.87,136.14,312.81,136.46Z" style="fill:#f5f5f5"></path><path d="M322.34,129.49c4.21,5.24-4.11,1.18-8.1,2.36S329,146,325.67,149.07c-1.85,1.71-13.84-2.89-11.58,1.3.72,1.34,13.06,11,7.3,11.74-3.43.43-8.14-1.35-6.16,3.53a26.05,26.05,0,0,0,5.78,8.62l32.46-24.44S323,119,315.78,116.89l-.47-.1C314,117.22,318.13,124.25,322.34,129.49Z" style="fill:#fff;opacity:0.30000000000000004"></path><path d="M377.35,168.6c.19,2.09-14.53-1.94-15-.08s16.77,15.19,17,19.09c.14,2.13-6.19.53-11.1-1.2-3.4-1.19-9,0-4.09,5.8,2.66,3.12,82.23,63.73,96.53,74.61h2.2v-56c-3.37-2.67-87.72-69.48-94.43-69.14a4.78,4.78,0,0,0-.63.09c-2.1.93,3.3,7.32,4.43,9.67,1.23,2.54-10.35,0-10.83,1.71S377.17,166.52,377.35,168.6Z" style="fill:#fff;opacity:0.30000000000000004"></path><path d="M267.23,266.82V196.29s-60.85-53.92-66.67-53.62c-4.43.22-30,19.18-30,19.18s-29.81-26.74-35.11-27.38-98.95,72-98.95,72l0,60.36Z" style="fill:#e0e0e0"></path><path d="M267.23,266.82V196.29s-60.85-53.92-66.67-53.62c-4.43.22-30,19.18-30,19.18s-29.81-26.74-35.11-27.38-98.95,72-98.95,72l0,60.36Z" style="fill:#ebebeb"></path><path d="M200.55,142.67c-2.78.14-13.87,7.64-21.76,13.22,2.24.46,6.08,2.83,9,2.73,4.36-.16,7.69-4.16,10.8-2.43s6.7,6.05,10.7,6.7c6.41,1.05,7.39-1.61,10.83-.82a85.67,85.67,0,0,0,8.74,1.25C215.4,152.18,203,142.54,200.55,142.67Z" style="fill:#f5f5f5"></path><path d="M133.29,151.18c3.34.27,8.79,3.49,11.06,1.46s5.19-3.61,7.94-2.8,6.83,2.12,6.83,2.12h0c-9-7.69-20.62-17.1-23.74-17.48-1.73-.21-12.86,7.37-27.07,17.69,7.1-1.4,8.68,4.55,13.28,3.54C126.42,154.64,129.94,150.92,133.29,151.18Z" style="fill:#f5f5f5"></path><path d="M141.39,145.26c3.58,4.45-3.49,1-6.89,2s11.84,9.8,9,12.43c-1.57,1.45-9.19-2-7.27,1.51s14.34,14.22,14.34,14.22l19.93-13.58s-28.59-25.5-34.71-27.29l-.4-.09C134.3,134.83,137.81,140.81,141.39,145.26Z" style="fill:#fff;opacity:0.30000000000000004"></path><path d="M202.53,152.42c1,2.16-7.55-1.45-8,0s11.64,13.69,11.8,15.47-10.65-4-11-2.4,14.24,12.91,14.45,16.22c.12,1.81-5.26.45-9.43-1-2.89-1-7.68,0-3.48,4.93,2.47,2.89,69.51,59,70.34,59.69v-49s-60.85-53.92-66.67-53.62a3,3,0,0,0-.59.1C198.3,143.69,201.57,150.44,202.53,152.42Z" style="fill:#fff;opacity:0.30000000000000004"></path></g></g><g id="freepik--Palms--inject-350"><path d="M9.66,175.53a11.11,11.11,0,0,1,2.69-6.05,15.11,15.11,0,0,0-1.73,6c.88-3.17,2.36-5.46,5.16-6.19-3.95,3.58-5.51,10.19-4.89,15.4a19.1,19.1,0,0,1,2.64-8.32,35.64,35.64,0,0,0-1.41,7,22.88,22.88,0,0,1,4.3-7.32,25.14,25.14,0,0,0-1.65,14,19.59,19.59,0,0,1,2.3-11.71,30.08,30.08,0,0,0-1.16,6.92,19.16,19.16,0,0,1,4.3-9.62c-2.65,6-2.13,13-.87,19.26-.33-4.83-.81-12.5,2.09-17.17a30.84,30.84,0,0,0-.17,14.34,21.91,21.91,0,0,1,1-10.69,47.94,47.94,0,0,0,.74,8.42,75.7,75.7,0,0,1,.28-8.16A96.39,96.39,0,0,0,26.69,194c-.1-.52-2.18-10.17-1.56-15.42a42.56,42.56,0,0,0,1,8.17c-.08-1.26-.15-2.71-.16-4.25A29.85,29.85,0,0,0,27.9,188a43.58,43.58,0,0,1-1.21-10.74c.74,3.36,1.32,4.64,1.93,5.39.15.71.31,1.42.49,2.09-.1-.6-.19-1.22-.27-1.85a4.38,4.38,0,0,0,.39.36,1.24,1.24,0,0,0,.7.25c2.62,15.72,6.47,59.15,6.59,83.3h.16q2.7-2.77,5.66-5.51c-1.73-25.2-5.07-57-10.25-78.29a1.36,1.36,0,0,0,.25-.22,4,4,0,0,0,.51-1.63,44.73,44.73,0,0,1,.76,5.51,35.27,35.27,0,0,0-.72-8.13,39,39,0,0,0-.49-3.87A51.29,51.29,0,0,1,36,188.06a50.32,50.32,0,0,0-1.83-11.26,44.48,44.48,0,0,1,4.72,13.45,59.5,59.5,0,0,0-1.25-8.34c1,2.12,1.7,3.89,2,4.51-.32-1-1.62-5.06-3-8.39-.13-.42-.26-.83-.39-1.22,3,2.33,5.2,7,6.53,11.52-.47-3.24-.76-6.21-1.8-9,2.44,2.66,3.74,6.35,4.57,9.73a23.52,23.52,0,0,0-6.61-15.82c3.47,1.42,5.91,3.92,8.43,8.24a17.25,17.25,0,0,0-6.87-9.84,11.62,11.62,0,0,1,7.29,6.06,13.7,13.7,0,0,0-8.95-9,14.41,14.41,0,0,1,9.43,4.9c-1.32-3.32-5.76-6.4-10.22-7.38a8.78,8.78,0,0,1,6.72,1.41,11,11,0,0,0-9.34-3c4.77-2.65,9.73.25,12.54,3.78-1.18-3.9-6.28-7.43-10.79-7a9.31,9.31,0,0,1,5.28-1.25,13.29,13.29,0,0,0-7.39.63,6.39,6.39,0,0,1,5.22-1.51,7.7,7.7,0,0,0-5.36-.23c2.3-2,5.2-2.08,9-.55-5.31-3.15-10.63-2.72-13.71,2.28.62-3.24,1.94-6.92,5.5-7.25a6,6,0,0,0-5.35,2.82c.41-1.47.81-2.61.85-2.75a21.26,21.26,0,0,0-3,4.86,20.61,20.61,0,0,0-3.56-9.33,29.8,29.8,0,0,1,2.06,8.06,11.29,11.29,0,0,0-5-5,16.76,16.76,0,0,1,3,4.65,8.52,8.52,0,0,0-3.88-3,9.54,9.54,0,0,1,3.32,4.39c-1.7-1.52-3.89-2.65-6-1.19,1.78,0,3.23,1.13,4.37,2.61a9.45,9.45,0,0,0-5.28-1c-3.32.39-5.65,3.06-7.16,5.84,2.67-3.05,6.16-4.79,10.06-2.6-3.36-.1-6.06,1.37-8.59,3.44,2.16-1.15,5-2.4,7.45-2a13.32,13.32,0,0,0-3.13.91C11.44,166.19,9.45,170.61,9.66,175.53Z" style="fill:#e0e0e0"></path><path d="M87.72,175.18c-.61-3.34-4.17-7-8.14-8.75a8.39,8.39,0,0,1,6,2.55,10.45,10.45,0,0,0-8.14-4.47c4.92-1.59,9,2,11,5.82-.38-3.84-4.47-8.06-8.73-8.52a8.75,8.75,0,0,1,5.13-.18,12.41,12.41,0,0,0-7-.79,6.07,6.07,0,0,1,5.13-.43,7.25,7.25,0,0,0-4.94-1.2c2.51-1.45,5.21-1,8.46,1.14-4.36-3.9-9.38-4.49-13.17-.41,1.18-2.9,3.08-6.07,6.45-5.72a5.69,5.69,0,0,0-5.49,1.63c.66-1.29,1.22-2.28,1.29-2.4a20.2,20.2,0,0,0-3.7,4,19.69,19.69,0,0,0-1.58-9.32,28.34,28.34,0,0,1,.42,7.87A10.65,10.65,0,0,0,67,150.43a15.56,15.56,0,0,1,1.91,4.87,8.07,8.07,0,0,0-3-3.52,9,9,0,0,1,2.28,4.69c-1.3-1.73-3.13-3.18-5.35-2.21,1.66.29,2.79,1.65,3.58,3.23a8.82,8.82,0,0,0-4.72-1.94c-3.15-.26-5.8,1.8-7.72,4.1,3-2.34,6.61-3.32,9.82-.56-3.1-.72-5.88.15-8.61,1.62,2.21-.67,5-1.33,7.28-.48a13,13,0,0,0-3.07.27c-4.43.93-7.09,4.68-7.8,9.28a10.52,10.52,0,0,1,3.62-5.12,14.15,14.15,0,0,0-2.72,5.28c1.4-2.78,3.19-4.63,5.93-4.8-4.33,2.6-7,8.46-7.38,13.42a18.18,18.18,0,0,1,4-7.25,34.37,34.37,0,0,0-2.6,6.28,21.57,21.57,0,0,1,5.35-6,23.71,23.71,0,0,0-4.12,12.71,18.55,18.55,0,0,1,4.29-10.46,28.59,28.59,0,0,0-2.35,6.22,18.26,18.26,0,0,1,5.77-8.16c-3.57,5.11-4.37,11.68-4.36,17.75.59-4.55,1.55-11.77,5.1-15.57a29.35,29.35,0,0,0-2.79,13.29,20.68,20.68,0,0,1,2.92-9.75,45.08,45.08,0,0,0-.87,8,72.57,72.57,0,0,1,1.77-7.52A88.2,88.2,0,0,0,64,190.11c0-.48-.16-9.86,1.39-14.63a40.87,40.87,0,0,0-.57,7.78c.17-1.19.37-2.55.64-4a27.85,27.85,0,0,0,.76,5.47,41.69,41.69,0,0,1,.86-10.2c.06,3.26.37,4.56.8,5.36,0,.7,0,1.38.07,2,0-.58,0-1.17.09-1.77a4.27,4.27,0,0,0,.29.41,1.18,1.18,0,0,0,.6.36c-.36,12.15-2.65,41.3-5.74,63.94,1.43-1,2.88-1.94,4.37-2.9,2-21.23,3.4-45,3.48-61.11a1.38,1.38,0,0,0,.27-.16A3.74,3.74,0,0,0,72,179.3a47,47,0,0,1-.31,5.26,33.88,33.88,0,0,0,.82-7.68,33.55,33.55,0,0,0,.26-3.69,48.55,48.55,0,0,1,.85,13.08,48.07,48.07,0,0,0,.37-10.8,42.07,42.07,0,0,1,1.91,13.38,58.57,58.57,0,0,0,.38-8c.53,2.27.9,4.15,1,4.65-.08-.81-.57-5-1.21-8.44,0-.42-.09-.82-.14-1.21,2.33,2.71,3.54,7.47,3.94,11.91a39.62,39.62,0,0,0,0-8.65c1.78,2.92,2.31,6.59,2.46,9.88a22.32,22.32,0,0,0-3.23-15.91c3,2,4.77,4.72,6.31,9.2a16.3,16.3,0,0,0-4.57-10.41,11,11,0,0,1,5.66,7,13,13,0,0,0-6.66-10A13.67,13.67,0,0,1,87.72,175.18Z" style="fill:#e0e0e0"></path><path d="M451.76,173.68a14.41,14.41,0,0,1,9.43-4.9,13.7,13.7,0,0,0-8.95,9,11.62,11.62,0,0,1,7.29-6.06,17.25,17.25,0,0,0-6.87,9.84c2.52-4.32,5-6.82,8.43-8.24a23.52,23.52,0,0,0-6.61,15.82c.83-3.38,2.13-7.07,4.57-9.73-1,2.74-1.33,5.71-1.8,9,1.33-4.51,3.56-9.19,6.53-11.52-.13.39-.26.8-.39,1.22-1.33,3.33-2.63,7.36-2.95,8.39.26-.62,1-2.39,2-4.51a59.5,59.5,0,0,0-1.25,8.34,44.48,44.48,0,0,1,4.72-13.45A50.32,50.32,0,0,0,464,188.06a51.29,51.29,0,0,1,3.56-13.38,39,39,0,0,0-.49,3.87,35.27,35.27,0,0,0-.72,8.13,44.73,44.73,0,0,1,.76-5.51,4,4,0,0,0,.51,1.63,1.36,1.36,0,0,0,.25.22c-5.23,21.56-8.59,53.78-10.31,79.11,1.66,1.54,3.25,3.11,4.79,4.69H463c.45-25,4.6-68.16,7.12-83.3a1.24,1.24,0,0,0,.7-.25,4.38,4.38,0,0,0,.39-.36c-.08.63-.17,1.25-.27,1.85.18-.67.34-1.38.49-2.09.61-.75,1.19-2,1.93-5.39A43.58,43.58,0,0,1,472.1,188a29.85,29.85,0,0,0,1.91-5.51c0,1.54-.08,3-.16,4.25a42.56,42.56,0,0,0,1-8.17c.62,5.25-1.46,14.9-1.56,15.42a96.39,96.39,0,0,0,3.39-12.29,75.7,75.7,0,0,1,.28,8.16,47.94,47.94,0,0,0,.74-8.42,21.91,21.91,0,0,1,1,10.69,30.84,30.84,0,0,0-.17-14.34c2.9,4.67,2.42,12.34,2.09,17.17,1.26-6.28,1.78-13.24-.87-19.26a19.16,19.16,0,0,1,4.3,9.62,30.08,30.08,0,0,0-1.16-6.92,19.59,19.59,0,0,1,2.3,11.71,25.14,25.14,0,0,0-1.65-14,22.88,22.88,0,0,1,4.3,7.32,35.64,35.64,0,0,0-1.41-7,19.1,19.1,0,0,1,2.64,8.32c.62-5.21-.94-11.82-4.89-15.4,2.8.73,4.28,3,5.16,6.19a15.11,15.11,0,0,0-1.73-6,11.11,11.11,0,0,1,2.69,6.05c.21-4.92-1.78-9.34-6.17-11.21a13.32,13.32,0,0,0-3.13-.91c2.5-.42,5.29.83,7.45,2-2.53-2.07-5.23-3.54-8.59-3.44,3.9-2.19,7.39-.45,10.06,2.6-1.51-2.78-3.84-5.45-7.16-5.84a9.45,9.45,0,0,0-5.28,1c1.14-1.48,2.59-2.65,4.37-2.61-2.1-1.46-4.29-.33-6,1.19a9.54,9.54,0,0,1,3.32-4.39,8.52,8.52,0,0,0-3.88,3,16.76,16.76,0,0,1,3-4.65,11.29,11.29,0,0,0-5,5,29.8,29.8,0,0,1,2.06-8.06,20.61,20.61,0,0,0-3.56,9.33,21.26,21.26,0,0,0-3-4.86c0,.14.44,1.28.85,2.75a6,6,0,0,0-5.35-2.82c3.56.33,4.88,4,5.5,7.25-3.08-5-8.4-5.43-13.71-2.28,3.79-1.53,6.69-1.46,9,.55a7.7,7.7,0,0,0-5.36.23,6.39,6.39,0,0,1,5.22,1.51,13.29,13.29,0,0,0-7.39-.63,9.31,9.31,0,0,1,5.28,1.25c-4.51-.4-9.61,3.13-10.79,7,2.81-3.53,7.77-6.43,12.54-3.78a11,11,0,0,0-9.34,3A8.78,8.78,0,0,1,462,166.3C457.52,167.28,453.08,170.36,451.76,173.68Z" style="fill:#e0e0e0"></path><path d="M447.65,177.59a34.37,34.37,0,0,0-2.6-6.28,18.18,18.18,0,0,1,4,7.25c-.38-5-3-10.82-7.38-13.42,2.74.17,4.53,2,5.93,4.8a14.15,14.15,0,0,0-2.72-5.28,10.52,10.52,0,0,1,3.62,5.12c-.71-4.6-3.37-8.35-7.8-9.28a13,13,0,0,0-3.07-.27c2.24-.85,5.07-.19,7.28.48-2.73-1.47-5.51-2.34-8.61-1.62,3.21-2.76,6.78-1.78,9.82.56-1.92-2.3-4.57-4.36-7.72-4.1a8.82,8.82,0,0,0-4.72,1.94c.79-1.58,1.92-2.94,3.58-3.23-2.22-1-4.05.48-5.35,2.21a9,9,0,0,1,2.28-4.69,8.07,8.07,0,0,0-3.05,3.52,15.56,15.56,0,0,1,1.91-4.87,10.65,10.65,0,0,0-3.71,5.53,28.34,28.34,0,0,1,.42-7.87,19.69,19.69,0,0,0-1.58,9.32,20.2,20.2,0,0,0-3.7-4c.07.12.63,1.11,1.29,2.4a5.69,5.69,0,0,0-5.49-1.63c3.37-.35,5.27,2.82,6.45,5.72-3.79-4.08-8.81-3.49-13.17.41,3.25-2.13,5.95-2.59,8.46-1.14a7.25,7.25,0,0,0-4.94,1.2,6.07,6.07,0,0,1,5.13.43,12.41,12.41,0,0,0-7,.79,8.75,8.75,0,0,1,5.13.18c-4.26.46-8.35,4.68-8.73,8.52,2-3.8,6-7.41,11-5.82a10.45,10.45,0,0,0-8.14,4.47,8.39,8.39,0,0,1,6-2.55c-4,1.73-7.53,5.41-8.14,8.75a13.67,13.67,0,0,1,7.86-6.3,13,13,0,0,0-6.66,10,11,11,0,0,1,5.66-7,16.3,16.3,0,0,0-4.57,10.41c1.54-4.48,3.35-7.25,6.31-9.2A22.32,22.32,0,0,0,417.65,189c.15-3.29.68-7,2.46-9.88a39.62,39.62,0,0,0,0,8.65c.4-4.44,1.61-9.2,3.94-11.91,0,.39-.1.79-.14,1.21-.72,3.84-1.23,8.58-1.23,8.58s.4-2.12,1-4.79a58.57,58.57,0,0,0,.38,8A42.07,42.07,0,0,1,426,175.47a48.07,48.07,0,0,0,.37,10.8,48.55,48.55,0,0,1,.85-13.08,33.55,33.55,0,0,0,.26,3.69,33.88,33.88,0,0,0,.82,7.68,47,47,0,0,1-.31-5.26,3.74,3.74,0,0,0,.78,1.42,1.38,1.38,0,0,0,.27.16c.08,16.31,1.45,40.37,3.54,61.76,1.5,1,3,2,4.41,3-3.14-22.73-5.47-52.36-5.84-64.64a1.18,1.18,0,0,0,.6-.36,4.27,4.27,0,0,0,.29-.41c0,.6.08,1.19.09,1.77,0-.66.07-1.34.07-2,.43-.8.74-2.1.8-5.36a41.69,41.69,0,0,1,.86,10.2,27.85,27.85,0,0,0,.76-5.47c.27,1.43.47,2.79.64,4a40.87,40.87,0,0,0-.57-7.78c1.55,4.77,1.39,14.15,1.39,14.63a88.2,88.2,0,0,0,.89-12.05,72.57,72.57,0,0,1,1.77,7.52,45.08,45.08,0,0,0-.87-8,20.68,20.68,0,0,1,2.92,9.75A29.35,29.35,0,0,0,438,174.08c3.55,3.8,4.51,11,5.1,15.57,0-6.07-.79-12.64-4.36-17.75a18.26,18.26,0,0,1,5.77,8.16,28.59,28.59,0,0,0-2.35-6.22,18.55,18.55,0,0,1,4.29,10.46,23.71,23.71,0,0,0-4.12-12.71A21.57,21.57,0,0,1,447.65,177.59Z" style="fill:#e0e0e0"></path></g></g><g id="freepik--Sea--inject-350"><g id="freepik--sea--inject-350"><ellipse id="freepik--Floor--inject-350" cx="250" cy="337.79" rx="246.43" ry="143.22" style="fill:#023E02"></ellipse><ellipse id="freepik--floor--inject-350" cx="250" cy="337.79" rx="246.43" ry="143.22" style="fill:#fff;opacity:0.5"></ellipse><path d="M496.4,338.82c.23-18.24-5.51-36.49-17.19-53.69a31.1,31.1,0,0,0-8.16,7.46c-2.87,4.08-3.66,9-.73,13.67,3.13,4.95,10,8.94,14.52,13.56s6,11.21-.63,13.56a28.26,28.26,0,0,1-6.94,1.07c-7.63.52-16.07-1.09-23.81-4-3-1.12-6.4-4.35-8.27-7.13-3.39-5.08-4-11.18-4.53-16.9-.52-5.23-1.27-11-4.56-15.7-2.75-4-7.15-6.31-9.74-10.43-1.75-2.8-2.41-6-3.55-9.06-5.06-13.4-24.18-11.73-29.28-24.36-2.58-6.34,5.05-12,14.81-13.24a49.25,49.25,0,0,1,10.79,0,265.35,265.35,0,0,0-26.79-12.77c.26,3.58-.78,7.39-5.3,9.2-2.21.9-5,1.22-7.06,2.21a6.89,6.89,0,0,0-3.56,4.22c-1.65,5.41,2.11,11.8,9.44,16,3.88,2.21,8.58,3.82,12.7,5.83a42.67,42.67,0,0,1,9.91,6.52c3.4,3.1,5.64,7.43,1.87,9.63-1.7,1-4.28,1.31-6.73,1.6-11.25,1.2-24.89,1.9-33.93-3.63-6.64-4.06-8.06-10-12.79-14.93a45.67,45.67,0,0,0-10.58-7.59c-14.3-8.09-31.57-14.14-49.5-17.35-6.28-1.11-13.48-2.27-17.15-5.76-2.16-2.06-2.53-4.46-2.8-6.74-.92-7-.39-14.46,4.46-18.8,1.25-1.12,4.59-2.89,6.74-5q-6.92-.61-13.88-1c-1.21.71-2.78,1.29-4.07,1.91-2.92,1.41-4.8,3.56-5.19,6-.22,1.23,0,2.53-.49,3.71a4.08,4.08,0,0,1-3.85,2.37c-2.82.12-5.21-1.64-7.61-2.82-8.88-4.48-21.33-2.31-31.36-5.47a57.69,57.69,0,0,1-9.37-4.29l-.65-.32q-6.14.55-12.24,1.3l.43.25c8.33,5,17.07,10.72,27.9,12.09,7.39.94,14.71-.34,22,1,11.43,2.11,19.2,11.34,14.49,17.29-1.82,2.35-5.06,4-7.9,5.9-5.6,3.72-9.77,8.4-10.31,13.78s2.9,11.43,10.11,15.38c4.11,2.24,13.57,4.37,11.57,7-3.18,4.21-16-1.33-23.78-3.29a62.37,62.37,0,0,0-18.16-2.28c-7.88.38-15.81,1.89-24-.21-5.92-1.52-14-4.63-17.5-10.93-2.8-5.11-1.47-10.51-5.12-15.46-4.82-6.53-16.6-10.24-27.28-13.15-9.66-2.63-20.24-5.62-26.31-10.89q-5,1.71-9.92,3.57c1.92,2.84,3.68,5.83,3.15,8.71-.45,2.57-2.63,4.07-4.66,5.35-2.56,1.65-5.35,3.33-8.65,3-4-.31-7.63-3.39-11.17-6-.54-.41-1.1-.81-1.67-1.2q-6,2.92-11.85,6.1a56.11,56.11,0,0,1,12.83,7.63c3,2.24,6,4.63,7.2,7.33.92,2.09.68,4.17,1.28,6.27,1.46,5.36,8,10.11,14.6,14.17,6.32,3.87,13.84,8.72,12,13.46-.5,1.33-1.71,2.42-2.55,3.67-2.53,3.78-.9,8.8,4,12.41,5.71,4.19,15.07,6.34,19.41,11s.85,10.87-6.92,12-17.08-2.1-24.32-.42c-6.92,1.62-9.36,7.16-16.52,8.41-7,1.21-14.78-2.05-22.21-3.88a59.13,59.13,0,0,0-20.89-1.28c-3.86.47-7.44,1.39-11.41,1.62a26.39,26.39,0,0,1-11.58-2.35A35.38,35.38,0,0,1,23.33,315c-3.55-4-4.66-8.76-2-12.43,4.08-5.66,15.22-7.44,25.14-9.05S67.23,289.23,69.17,283c2.13-6.7-7-13.62-13.4-20.11a37.71,37.71,0,0,1-6.32-8.31c-2.52,2.05-5,4.13-7.26,6.24l.24.32c2.12,2.58,4.6,4.83,6.63,7.51s3.59,6,3.25,9c-.53,4.59-5.15,6.7-9.51,7.23-5,.61-10.32,0-15.39.51a19.85,19.85,0,0,0-8.5,2.63A98.75,98.75,0,0,0,6.09,317.34c4,3,9.68,5.26,14.91,7.57,6.23,2.75,12.6,6.23,14.41,10.6,1.62,3.9-.82,7.6-.93,11.47-.18,5.94,5.16,12,11.12,17.36s12.81,10.51,16.58,16.42c2,3.2,3.06,6.67,1.44,9.58s-5.59,4.84-9.08,6.91a29.77,29.77,0,0,0-8.72,7.14c-2.47,3.22-1.79,7.12-2.86,10.95,0,.05,0,.08,0,.12a197.51,197.51,0,0,0,32.83,23.61,272.62,272.62,0,0,0,44.81,20.62c-3.19-2.69-5.27-5.66-5.43-8.78-.15-3.65,2.45-6.92,5.86-9.62a38.53,38.53,0,0,1,21.36-8c8.89-.62,19.31,1.73,25.31,6.54,4,3.18,5.68,7.06,8.2,10.66a20.92,20.92,0,0,0,12.52,8.71c7.91,1.83,15.63-1.35,23.71-.09,8.49,1.31,14,6.81,18.31,11.7q4.4,5,8.78,10,4.9.12,9.79.14c-1.34-2.41-2.46-4.85-3.77-7.27-7.07-13.19-20.8-25.64-38.62-35-9.13-4.78-19.42-8.85-26.9-14.62s-11.4-14-5.28-19.11c6.32-5.26,20.5-4.68,31.36-1.16s19.61,9.24,29.41,13.95a28.66,28.66,0,0,0,9.65,3.08c8.88.82,12.6-7,21.32-7.22.94,0,3.72.15,5,1.74,2.32,2.87-.25,8.46-2.68,11.59s-6.63,5.51-9.54,8.44-4.39,7-1.11,10.38c5.1,5.33,18.6,6.25,23.07,11.73,4.21,5.15-2.57,10.16-1.78,15.6.32,2.25,1.91,4.44,3.89,6.61q11.64-.92,23.12-2.46a44.69,44.69,0,0,1-7.36-4.79c-4.53-3.81-6.2-9.38-1.1-12,2.51-1.28,6.32-1.64,9.41-2.41,9.32-5.4,15.32-12.9,16.92-21.15.86-4.58.42-9.37,1.42-13.95a15.77,15.77,0,0,1,9.65-11.54,8,8,0,0,1,3-.69,13,13,0,0,1,4.35,1c8.54,3.12,17.86,6.83,21.26,12.43,2.86,4.68.7,9.51-3.16,13.23-3.6,3.47-8.86,6.89-7.52,11.36.86,2.83,4.35,5.38,8.25,7.3a80.91,80.91,0,0,0,14.31,4.95q5.52-1.9,10.88-4c-3.62-1.41-8-2.8-11.47-4.12-4-1.49-7.5-4.05-7.6-6.69-.12-3.23,4.49-5.19,7.77-7.38,8.39-5.68,8.27-15.68-.24-22.94-2.67-2.26-6-4.26-8.41-6.65s-3.54-5.4-1.37-7.42c3.71-3.44,13.07-1.49,19.87-2.39,9.52-1.23,13.33-8.05,22.12-10.29,9-2.29,20.36.74,30,4,10.38,3.52,20.65,7.48,28.92,12.85l.38.26c1.9-2,3.71-4.07,5.43-6.13a52.19,52.19,0,0,1-9.5-4.34c-4.25-2.39-8.15-5.31-9.36-8.59s.27-6.25-.61-9.42c-.9-3.38-4.28-6.51-7.58-9.49-4.62-4.1-9.52-8.31-16.26-11.05-7.08-2.91-15.37-3.89-23.32-4.8s-16.24-1.86-23.37-4.68-12.77-8.19-11.06-12.73c.88-2.34,3.46-4.11,5.28-6.15,5.26-5.86,3.4-14.34-4.45-20.42-2.13-1.65-4.68-3.16-6.16-5-2.07-2.55-1.84-5.35-1-7.87a14.05,14.05,0,0,1,3.67-6.08c5.18-5,15.65-7,26-6.63,14.19.5,30.19,5.86,35.54,14.39,4.64,7.36.36,14.93,3,22.51,3.44,9.76,17.48,17.55,30.51,24.4l30.26,15.87q.79-3,1.4-6a53.16,53.16,0,0,1-6.83-5.35c-2.13-2-4-4.39-3-6.38C486.37,339.72,491.5,339.42,496.4,338.82ZM262.62,258.87c-4-4.22-6.07-9.24-3.93-13.38,3.39-6.56,16.29-9.15,28.14-7.79s22.91,5.73,33.49,10c15.58,6.31,32.42,13.63,38.45,24.16a5.82,5.82,0,0,1,1,4c-.34,1.34-1.55,2.43-2.71,3.49-6.47,5.92-12.74,12.57-11.46,20.27.93,5.71,5.93,11.3,11.8,16.27,2.73,2.35,5.9,5.06,5,7.6-.65,1.84-3.31,3-4.55,4.63-2.88,3.86,2,10.05-3.39,12.6-4.63,2.18-12.76-.92-15.52-4.68s-2.29-7.75-3.31-11.65c-1.64-6.2-7.47-12.35-15.79-16.64-5.5-2.83-12.94-6-12.27-10a10.64,10.64,0,0,1,1.44-2.8c2.58-4.53-.7-10.55-7.58-14-8.51-3.32-15.13-7-22.8-11.12C272.58,266.63,266.69,263.09,262.62,258.87Zm-118.35,37.8c-1.8-1.16-3.51-2.5-3.73-4-.39-2.61,4-4.06,5.44-6.34,2.52-3.87-3.63-8.54-9.3-11.84-5.29-3-10.79-6.07-14.79-9.78-6.08-5.64-8.1-12.61-5.28-18.33s10.41-10.12,20-11.54c10.45-1.53,24.67,1.47,29.28,8.16a20,20,0,0,1,2.3,5.86c2.83,9.28,12,19.35,26.62,23,9.64,2.43,19.7,1.66,29.51,1.59a202.05,202.05,0,0,1,54.94,7.5c9.12,2.58,19.33,7.1,19.6,12.89.16,3.95-4.75,6.92-10.54,8.08s-12.47.76-18.92.39c-3.67,1.31-10.89,3.94-12.2,7.18-1,2.6.8,5.53,1.87,8.31s1.11,6.06-2.37,7.5c-3.13,1.29-8,.5-11.49-1.08s-6.18-3.81-9.06-5.82a69.53,69.53,0,0,0-28.59-11.37c-14.1-2.25-28.21,0-42.27-2.51A58.18,58.18,0,0,1,144.27,296.67Zm59.41,150.26c1.57,1.46,2.79,3.53.91,4.47a7.65,7.65,0,0,1-3.54.4c-5.62-.19-11.45.91-16.09-3-4.43-3.69-6.13-8.26-10.77-11.88-7.49-5.88-19-9.95-30.29-10.74s-22.31,1.69-29,6.59a71,71,0,0,1-5.88,4.42c-6.47,3.85-17.49,4.26-27,1.86A50.59,50.59,0,0,1,58.9,426.28c-2.21-2.2-4.08-4.57-4.83-7-1.79-5.83,3.11-10.94,8.74-15s12.31-7.78,15-13c2.49-4.79,1.24-10.57-3.34-15.45-7-7.56-21-12.56-26.95-20.38-5.83-7.64-1.54-16.77,9.42-20,7-2,15.65-1.81,23.84-.38a98.14,98.14,0,0,1,35,13.68c8,5,15.06,11.69,13.41,17.87-1.51,5.67-10.22,9.7-9.25,15.66.78,5,8.15,9.26,15.23,12.39s15.08,6.23,18.94,11c3.25,4,2.93,8.39,5.23,12.55C166.16,430.43,191.73,435.86,203.68,446.93ZM214,375.61c-1.5,3.37-5.87,5.94-6.57,9.5-.63,3.39,1.61,7.95-3,9.51-3.09,1-7.26-.13-11-.43-7.13-.58-13.05,1.89-19.58,3s-17.74-1.16-23.4-4.34c-3.73-2.08-8.43-5.41-11.34-9.26s-2.86-8.25.07-11.49c3.6-4.05,11.55-7.37,8.94-12.26-1.05-2-3.69-3.6-6.21-5.14-6.25-3.72-12.49-7.48-18.74-11.23-3.72-2.25-7.73-4.81-8.28-7.79-.4-2.24,1.34-4.25,3.71-5.71,7.19-4.33,20.82-4.06,29.86.57,5.82,3,9.44,7.31,14.48,10.8,6,4.15,13.87,7.06,21.56,9.88s15.53,5.71,21.61,9.83S216.08,370.85,214,375.61Zm56.76,19.71a4.81,4.81,0,0,1-.66,1.41c-5.88,5.66-9.15,13.68-20.2,15.18-7.46,1-15.93-2.39-21.26-6.53-6.5-5.09-9.88-11.52-9.1-17.37.73-5.57,5.05-10.59,4.44-16.31-.46-4.59-4.09-9.16-8.65-13.24A78.19,78.19,0,0,0,196,346c-6.82-3.16-14.36-5.68-20.74-9.18s-11.74-8.4-11.36-13.18c.31-4.18,5.07-7.48,11.09-9s13.19-1.42,20.13-.65a110.74,110.74,0,0,1,38.47,11.29c4.32,2.25,8.51,5,9.78,8.24.92,2.34.2,4.63-.07,6.92-.52,4.71,1.71,10.4,8.65,13.32,4.81,2,10.67,2.25,15.95,3.58s10.59,5.08,8.36,7.88c-.77,1-2.26,1.55-3.34,2.36-3.74,2.83-1.86,7.35-.77,11.31A23.46,23.46,0,0,1,270.78,395.32Zm76.57,7.79c-2.08,2.45-8.23,1.75-13,1.89-8.29.25-14.62,3.94-17.71,8.41s-3.52,9.68-3.89,14.78c-.29,3.78-.57,7.59-.86,11.39-.18,2.38-.37,4.81-1.89,6.86-3,4.08-11.08,6-18.88,5.05s-15.94-4.11-19.95-8.56a18.28,18.28,0,0,1-1.18-1.79c-1.39-3.8.41-5.78,2.85-9,1.61-2.14,4-4,5.72-6.07,4-4.92,4.22-10.94,4.35-16.77.24-10.16.46-20.29.7-30.45.1-3.79.21-7.72,2.88-10.89,3.48-4.17,11.37-6.48,19.57-5.79s16.3,4.39,20.08,9.14c2.49,3.14,3.15,6.57,4.61,9.86,2.12,4.87,6,9.6,11.33,13.71C345.34,397.41,349.43,400.63,347.35,403.11Zm40.93-44.22a108,108,0,0,1,23.13,1.88c7.65,1.64,15.07,4.65,19.63,8.93,3.17,3,6.13,7.63,3.64,10.32s-8.75,2.3-13.53.25a10.83,10.83,0,0,0-2.69-.47,65.83,65.83,0,0,0-19.67,1.88c-7.22,2.05-12.63,5.72-19.63,8s-17,2.81-23.82-.95c-9.8-5.33-6-14.69-12.62-21.53-4.69-4.89-13.78-7.64-22.28-9.43a115,115,0,0,0-20.13-2.66c-6.37-.17-12.61.44-19-.22a45.92,45.92,0,0,1-18.1-5.68c-3.45-2-6.41-4.86-5.59-7.43,1.25-3.74,9.36-4.34,12.81-7.3,5-4.33-1.42-11.08-1.4-16.74,0-6.69,10.26-11.45,21.27-10.94s21.87,5.48,28.05,11.64c5.13,5.11,7.4,10.88,11.13,16.32A62.7,62.7,0,0,0,344.85,350a47,47,0,0,0,11.48,6.2C366.3,359.68,377.62,359,388.28,358.89Z" style="fill:#fff;opacity:0.25"></path></g></g><g id="freepik--Clouds--inject-350"><path id="freepik--Cloud--inject-350" d="M154.44,47.12c0-3.13-3.44-5.31-7.33-5.68-4.58-.43-7.83,1.62-7.94,5.23-3-1.24-6.16-.45-5.92,2.85-.78-.9-3.7-.87-4.75-.62a4.1,4.1,0,0,0-2.61,2.22,3.07,3.07,0,0,0-.27,1.69c-1.75-.57-5.72-.92-6.72.68-1.76,2.85,5.3,2.94,6.73,2.08.3,2.22,7.9,2.58,9.74.54,1.43,1.44,3.5,1.76,5.72,1.89,3.76.23,6.07-1,9-2.54,3.19,2.7,8.7,2.75,11.57-.34.74.69,2.75.9,4.37.52,1.06-.26,1.31-.71,1.31-.71a9.5,9.5,0,0,0,1.95.59c2.08.43,6,0,4.33-1.9a4.87,4.87,0,0,0-3.44-.85c-.91-1.79-4.56-3.48-6.65-2-.08-2.17-2.06-3.86-4.85-4.29C157.75,46.37,155.51,46.24,154.44,47.12Z" style="fill:#f5f5f5"></path><path id="freepik--cloud--inject-350" d="M73.09,83.19c0-3.14-3.44-5.31-7.33-5.68-4.59-.43-7.84,1.61-8,5.22-3-1.23-6.15-.44-5.92,2.86-.78-.9-3.69-.88-4.74-.63a4.09,4.09,0,0,0-2.61,2.23,3,3,0,0,0-.27,1.68c-1.75-.57-5.73-.92-6.72.68-1.77,2.86,5.3,3,6.72,2.08.31,2.22,7.9,2.59,9.74.54,1.44,1.45,3.5,1.77,5.73,1.9,3.76.22,6.06-1,9-2.55,3.19,2.71,8.71,2.75,11.58-.34.73.7,2.75.91,4.37.52,1.06-.25,1.3-.7,1.3-.7a9.09,9.09,0,0,0,2,.58c2.09.44,6,0,4.34-1.9a4.89,4.89,0,0,0-3.44-.84c-.91-1.79-4.56-3.49-6.66-2-.08-2.17-2.06-3.86-4.84-4.3C76.39,82.43,74.15,82.31,73.09,83.19Z" style="fill:#f5f5f5"></path><path id="freepik--cloud--inject-350" d="M446.71,106.92c0-3.14-3.44-5.31-7.33-5.68-4.58-.43-7.84,1.61-7.94,5.22-3-1.23-6.16-.44-5.93,2.85-.77-.89-3.69-.87-4.74-.62a4.09,4.09,0,0,0-2.61,2.23,3,3,0,0,0-.27,1.68c-1.75-.57-5.72-.92-6.72.68-1.77,2.86,5.3,3,6.73,2.08.3,2.22,7.89,2.59,9.73.54,1.44,1.45,3.5,1.77,5.73,1.9,3.76.22,6.06-1,9-2.55,3.18,2.71,8.7,2.75,11.57-.34.73.69,2.75.91,4.37.52,1.06-.25,1.31-.7,1.31-.7a8.83,8.83,0,0,0,1.94.58c2.09.44,6,0,4.34-1.9a4.86,4.86,0,0,0-3.44-.84c-.91-1.79-4.56-3.49-6.65-2-.08-2.16-2.06-3.86-4.85-4.29C450,106.16,447.77,106,446.71,106.92Z" style="fill:#f5f5f5"></path><path id="freepik--cloud--inject-350" d="M376.76,70.52a8.9,8.9,0,0,0-2.88-.53c-.93-.07-1.22-.26-1.4-.46a6.87,6.87,0,0,0-8.25-2.43A5.26,5.26,0,0,0,358,63.58c.1-2.89-3.6-6-6.92-6.72s-6-.39-7.79,1.71c-1.95-3.81-9.58-4.88-13.71-2.87-2.38,1.16-4.39,2.35-5.38,4.53a9,9,0,0,0-.89,4.32c-1.61-1.42-4.84-1.8-7-1-2.32.9-2.49,2.65-2.61,4.42a8.07,8.07,0,0,0-4.22-.07c-1.46.43-2.3,1.58-2.1,2.5-1.15-.06-3.91.87-3.59,2.09.36,1.37,3.5,1.23,4.67,1.19a21.13,21.13,0,0,0,3.29-.52,5.09,5.09,0,0,0,1.71.33c2,0,2.85-.87,3.17-1.62,1,2.06,4.46,3.63,6.91,4.26,4.63,1.18,11.18.46,14-3A5.22,5.22,0,0,0,339,74.84a8,8,0,0,0,4.28,1.73c1.9.18,7,.43,8.44-2.6,1,2,5.56,2.93,9,2.44a14.15,14.15,0,0,0,3.87-1.17,22.46,22.46,0,0,0,2.22-1.33,1.84,1.84,0,0,1,1.9-.13,11.34,11.34,0,0,0,7.54,0C378.17,73,378.57,71.34,376.76,70.52Z" style="fill:#f5f5f5"></path></g><g id="freepik--Sun--inject-350"><circle id="freepik--sun--inject-350" cx="411.71" cy="48.93" r="13.72" transform="translate(269.5 438.38) rotate(-76.72)" style="fill:#ffbda7"></circle></g><g id="freepik--ship-2--inject-350"><g id="freepik--Ship--inject-350"><path id="freepik--Shadow--inject-350" d="M111.28,277.61c-3.76,2.17-15.52,6.89-31.25,9.11a119.19,119.19,0,0,1-19.75,1.18,106.68,106.68,0,0,1-16.62-1.66c-9.34-18.44,8.7-35.36,15-39l88.38-51,50.73,29.29a1.26,1.26,0,0,1,0,2.17Z" style="fill:#023E02;opacity:0.4"></path><path d="M184.83,211.67l-90,52v-9.72c-3.76,2.16-15.52,6.88-31.25,9.11a120.28,120.28,0,0,1-19.75,1.18,106.73,106.73,0,0,1-16.62-1.67l7.11,4.93a69.17,69.17,0,0,0,36.92,12.32c18.57.65,30.6-3.2,38.32-7.65l83.05-48a7.07,7.07,0,0,0,3.38-4.63l3.55-16.38Z" style="fill:#f0f0f0"></path><path d="M186.48,218.52a8.5,8.5,0,0,1,3.39-4.93c1.47-.85,2.33,0,1.92,1.85a8.44,8.44,0,0,1-3.39,4.93C186.93,221.22,186.07,220.39,186.48,218.52Z" style="fill:#263238"></path><path d="M187.37,219.93c-.08,0-.09,0-.1,0s-.19-.48,0-1.22a7.7,7.7,0,0,1,3-4.42,1.35,1.35,0,0,1,.64-.23.15.15,0,0,1,.11,0,1.79,1.79,0,0,1,0,1.22,7.75,7.75,0,0,1-3,4.42A1.32,1.32,0,0,1,187.37,219.93Z" style="fill:#455a64"></path><path d="M178.06,223.26a8.5,8.5,0,0,1,3.4-4.93c1.46-.85,2.32,0,1.92,1.86a8.5,8.5,0,0,1-3.4,4.93C178.52,226,177.66,225.14,178.06,223.26Z" style="fill:#263238"></path><path d="M179,224.67c-.07,0-.09,0-.1,0a1.69,1.69,0,0,1,0-1.21,7.72,7.72,0,0,1,3-4.42,1.29,1.29,0,0,1,.64-.23c.07,0,.09,0,.1,0a1.69,1.69,0,0,1,0,1.21,7.74,7.74,0,0,1-3,4.43A1.34,1.34,0,0,1,179,224.67Z" style="fill:#455a64"></path><path d="M169.65,228a8.44,8.44,0,0,1,3.39-4.93c1.47-.85,2.33,0,1.92,1.85a8.52,8.52,0,0,1-3.39,4.94C170.1,230.72,169.24,229.89,169.65,228Z" style="fill:#263238"></path><path d="M170.54,229.42c-.08,0-.09,0-.11,0a1.73,1.73,0,0,1,0-1.21,7.73,7.73,0,0,1,3-4.43,1.49,1.49,0,0,1,.64-.23c.08,0,.09,0,.1,0s.19.48,0,1.21a7.7,7.7,0,0,1-3,4.42A1.35,1.35,0,0,1,170.54,229.42Z" style="fill:#455a64"></path><path d="M94.85,253.91c-3.76,2.16-15.52,6.88-31.25,9.11a120.28,120.28,0,0,1-19.75,1.18,106.73,106.73,0,0,1-16.62-1.67c-9.34-18.43,8.7-35.35,15-39l23.15,13.36,16.35,9.45Z" style="fill:#fafafa"></path><path d="M81.74,246.34l-16.35-9.45L42.24,223.53c-6.31,3.65-24.35,20.57-15,39a106.73,106.73,0,0,0,16.62,1.67A120.28,120.28,0,0,0,63.6,263c15.73-2.23,27.49-6.95,31.25-9.11Zm-18.32,15.4a121.31,121.31,0,0,1-16.79,1.2l-2.75,0a106.12,106.12,0,0,1-15.77-1.54c-4.36-9.17-1.42-17.66,1.87-23.22A42.42,42.42,0,0,1,42.26,225l22.48,13,27.39,15.82A107,107,0,0,1,63.42,261.74Z" style="fill:#fafafa"></path><path d="M81.74,246.34l-16.35-9.45L42.24,223.53c-6.31,3.65-24.35,20.57-15,39a106.73,106.73,0,0,0,16.62,1.67A120.28,120.28,0,0,0,63.6,263c15.73-2.23,27.49-6.95,31.25-9.11Zm-18.32,15.4a121.31,121.31,0,0,1-16.79,1.2l-2.75,0a106.12,106.12,0,0,1-15.77-1.54c-4.36-9.17-1.42-17.66,1.87-23.22A42.42,42.42,0,0,1,42.26,225l22.48,13,27.39,15.82A107,107,0,0,1,63.42,261.74Z" style="fill:#fafafa"></path><path d="M88.79,255.26a113.63,113.63,0,0,1-25.37,6.47,119.7,119.7,0,0,1-16.79,1.21l-2.75,0a106.12,106.12,0,0,1-15.77-1.54A22.3,22.3,0,0,1,26,253.51a26.45,26.45,0,0,1,4-15.36A42.42,42.42,0,0,1,42.26,225v3.35Z" style="fill:#ebebeb"></path><path d="M88.79,255.26a113.63,113.63,0,0,1-25.37,6.47,119.7,119.7,0,0,1-16.79,1.21l-2.75,0a106.12,106.12,0,0,1-15.77-1.54A22.3,22.3,0,0,1,26,253.51a28,28,0,0,1,4-12,42.42,42.42,0,0,1,12.28-13.11l22.48,13Z" style="fill:#37474f"></path><path d="M42.26,230.91A42.42,42.42,0,0,0,30,244a28.46,28.46,0,0,0-3.86,10.73,22.46,22.46,0,0,0,2,6.62,106.12,106.12,0,0,0,15.77,1.54l2.75,0a119.7,119.7,0,0,0,16.79-1.21,116.69,116.69,0,0,0,22.73-5.48L64.74,243.89Z" style="fill:#455a64"></path><path d="M37.63,241v-.51a1,1,0,0,1,.45-.78l3.31-1.91a1,1,0,0,1,.89,0L54,244.55a1,1,0,0,1,.45.78v.51a1,1,0,0,1-.45.78l-3.31,1.91a1,1,0,0,1-.9,0l-11.72-6.77A1,1,0,0,1,37.63,241Z" style="fill:#ebebeb"></path><path d="M50.25,247.09v1.55a.9.9,0,0,1-.44-.11l-11.73-6.77a1,1,0,0,1-.45-.78v-.51a1,1,0,0,1,.36-.72c-.16.14-.13.33.09.46L49.81,247A.9.9,0,0,0,50.25,247.09Z" style="fill:#e0e0e0"></path><path d="M38.08,240.21,49.8,247a1,1,0,0,0,.9,0L54,245.07c.25-.15.25-.38,0-.52l-11.73-6.77a1,1,0,0,0-.89,0l-3.31,1.91A.27.27,0,0,0,38.08,240.21Z" style="fill:#fafafa"></path><path d="M54.46,250.71v-.51a1,1,0,0,1,.45-.78l3.31-1.91a1,1,0,0,1,.9,0l11.73,6.77a1,1,0,0,1,.45.78v.51a1,1,0,0,1-.45.78l-3.31,1.91a1,1,0,0,1-.9,0l-11.73-6.77A1,1,0,0,1,54.46,250.71Z" style="fill:#ebebeb"></path><path d="M67.09,256.82v1.55a.94.94,0,0,1-.45-.11l-11.73-6.77a1,1,0,0,1-.45-.78v-.52a1,1,0,0,1,.37-.72c-.16.15-.14.34.08.47l11.73,6.77A.91.91,0,0,0,67.09,256.82Z" style="fill:#e0e0e0"></path><path d="M54.91,249.94l11.73,6.77a1,1,0,0,0,.9,0l3.31-1.91c.25-.15.25-.38,0-.52l-11.73-6.77a1,1,0,0,0-.9,0l-3.31,1.91C54.66,249.56,54.66,249.79,54.91,249.94Z" style="fill:#fafafa"></path><polygon points="50.66 228.39 94.85 253.91 94.85 263.63 199.56 203.16 146.96 172.79 50.66 228.39" style="fill:#fafafa"></polygon><path d="M92.13,253.83c-.9.43-2,.91-3.34,1.43L42.26,228.39V225Z" style="fill:#e0e0e0"></path><polygon points="94.85 261.2 195.35 203.16 146.96 175.22 52.76 229.61 50.66 228.39 146.96 172.79 199.56 203.16 94.85 263.63 94.85 261.2" style="fill:#fafafa"></polygon><polygon points="146.96 175.22 146.96 180.08 191.15 205.59 195.35 203.16 146.96 175.22" style="fill:#e0e0e0"></polygon><polygon points="52.76 229.61 56.97 232.04 146.96 180.08 146.96 175.22 52.76 229.61" style="fill:#e6e6e6"></polygon><polygon points="56.97 232.04 146.96 180.08 191.15 205.59 94.85 261.2 94.85 253.91 56.97 232.04" style="fill:#37474f"></polygon><polygon points="59.77 233.65 94.85 253.91 94.85 261.2 188.35 207.21 146.96 183.31 59.77 233.65" style="fill:#455a64"></polygon><path d="M73.89,230.89a1.86,1.86,0,0,0-.1.2l-.08.16c-2.3,4.79-.51,9.82,5.66,13.38,10.09,5.82,27.46,4.56,38.82-2.81l26.64-15.95a2.52,2.52,0,0,0,1.46-2.73c0-1.32-1.58-2.38-1.58-2.38Z" style="fill:#37474f"></path><path d="M139.75,195.05l29,16.74a1.35,1.35,0,0,0,1.22,0l6.42-3.75a1.35,1.35,0,0,1,1.22,0l.73.42a1.34,1.34,0,0,0,1.23,0l6.47-3.72c.34-.2.34-.52,0-.71l-33.37-19.27a1.34,1.34,0,0,0-1.23,0l-8.38,4.84c-.34.2-.34.52,0,.71l1.22.71a.38.38,0,0,1,0,.72l-4.52,2.61C139.41,194.53,139.41,194.85,139.75,195.05Z" style="fill:#37474f"></path><polygon points="178.45 207.7 143.09 187.28 143.09 173.32 178.45 193.73 178.45 207.7" style="fill:#e6e6e6"></polygon><polygon points="184.03 204.47 184.03 190.51 178.45 193.73 178.45 207.7 184.03 204.47" style="fill:#e0e0e0"></polygon><polygon points="184.03 190.51 148.67 170.09 143.09 173.32 178.45 193.73 184.03 190.51" style="fill:#f5f5f5"></polygon><polygon points="147.8 179.76 151.53 181.91 151.53 184.06 147.8 181.91 147.8 179.76" style="fill:#023E02"></polygon><polygon points="147.8 179.76 148.02 179.89 148.02 181.79 147.8 181.91 147.8 179.76" style="opacity:0.1"></polygon><polygon points="151.53 184.06 147.8 181.91 148.02 181.79 151.53 183.81 151.53 184.06" style="opacity:0.2"></polygon><polygon points="153.39 182.99 157.11 185.14 157.11 187.28 153.39 185.14 153.39 182.99" style="fill:#023E02"></polygon><polygon points="153.39 182.99 153.6 183.11 153.6 185.01 153.39 185.14 153.39 182.99" style="opacity:0.1"></polygon><polygon points="157.11 187.28 153.39 185.14 153.6 185.01 157.11 187.04 157.11 187.28" style="opacity:0.2"></polygon><polygon points="158.97 186.21 162.69 188.36 162.69 190.51 158.97 188.36 158.97 186.21" style="fill:#023E02"></polygon><polygon points="158.97 186.21 159.18 186.33 159.18 188.24 158.97 188.36 158.97 186.21" style="opacity:0.1"></polygon><polygon points="162.69 190.51 158.97 188.36 159.18 188.24 162.69 190.26 162.69 190.51" style="opacity:0.2"></polygon><polygon points="164.55 189.43 168.27 191.58 168.27 193.73 164.55 191.58 164.55 189.43" style="fill:#023E02"></polygon><polygon points="164.55 189.43 164.76 189.56 164.76 191.46 164.55 191.58 164.55 189.43" style="opacity:0.1"></polygon><polygon points="168.27 193.73 164.55 191.58 164.76 191.46 168.27 193.48 168.27 193.73" style="opacity:0.2"></polygon><polygon points="170.13 192.66 173.86 194.81 173.86 196.95 170.13 194.81 170.13 192.66" style="fill:#023E02"></polygon><polygon points="170.13 192.66 170.35 192.78 170.35 194.68 170.13 194.81 170.13 192.66" style="opacity:0.1"></polygon><polygon points="173.86 196.95 170.13 194.81 170.35 194.68 173.86 196.71 173.86 196.95" style="opacity:0.2"></polygon><polygon points="169.15 210.92 169.14 204.47 141.23 188.36 141.23 194.81 169.15 210.92" style="fill:#f0f0f0"></polygon><polygon points="169.15 210.92 174.72 207.7 174.72 201.25 169.14 204.47 169.15 210.92" style="fill:#e0e0e0"></polygon><polygon points="174.72 201.25 146.81 185.13 141.23 188.36 169.14 204.47 174.72 201.25" style="fill:#fafafa"></polygon><polygon points="144.95 192.66 148.67 194.8 148.67 196.95 144.95 194.81 144.95 192.66" style="fill:#023E02"></polygon><polygon points="144.95 192.66 145.16 192.78 145.16 194.68 144.95 194.81 144.95 192.66" style="opacity:0.1"></polygon><polygon points="148.67 196.95 144.95 194.81 145.16 194.68 148.67 196.71 148.67 196.95" style="opacity:0.2"></polygon><polygon points="150.53 195.88 154.25 198.03 154.25 200.18 150.53 198.03 150.53 195.88" style="fill:#023E02"></polygon><polygon points="150.53 195.88 150.75 196 150.75 197.9 150.53 198.03 150.53 195.88" style="opacity:0.1"></polygon><polygon points="154.25 200.18 150.53 198.03 150.75 197.9 154.25 199.93 154.25 200.18" style="opacity:0.2"></polygon><polygon points="156.12 199.1 159.84 201.25 159.84 203.4 156.12 201.25 156.12 199.1" style="fill:#023E02"></polygon><polygon points="156.12 199.1 156.33 199.23 156.33 201.13 156.12 201.25 156.12 199.1" style="opacity:0.1"></polygon><polygon points="159.84 203.4 156.12 201.25 156.33 201.13 159.84 203.15 159.84 203.4" style="opacity:0.2"></polygon><polygon points="161.7 202.33 165.42 204.47 165.42 206.62 161.7 204.47 161.7 202.33" style="fill:#023E02"></polygon><polygon points="161.7 202.33 161.91 202.45 161.91 204.35 161.7 204.47 161.7 202.33" style="opacity:0.1"></polygon><polygon points="165.42 206.62 161.7 204.47 161.91 204.35 165.42 206.38 165.42 206.62" style="opacity:0.2"></polygon><polygon points="178.45 193.73 178.45 185.13 184.03 181.91 184.03 190.51 178.45 193.73" style="fill:#e0e0e0"></polygon><polygon points="178.45 185.13 171 180.84 171 189.43 178.45 193.73 178.45 185.13" style="fill:#e6e6e6"></polygon><polygon points="184.03 181.91 176.59 177.62 171 180.84 178.45 185.13 184.03 181.91" style="fill:#f5f5f5"></polygon><polygon points="172.86 184.06 176.59 186.21 176.59 188.36 172.86 186.21 172.86 184.06" style="fill:#023E02"></polygon><polygon points="172.86 184.06 173.08 184.19 173.08 186.09 172.86 186.21 172.86 184.06" style="opacity:0.1"></polygon><polygon points="176.59 188.36 172.86 186.21 173.08 186.09 176.59 188.11 176.59 188.36" style="opacity:0.2"></polygon><path d="M181.28,181.86v-6.28h-2v6.28a.52.52,0,0,0,.3.42,1.59,1.59,0,0,0,1.44,0A.52.52,0,0,0,181.28,181.86Z" style="fill:#37474f"></path><ellipse cx="180.26" cy="175.58" rx="1.02" ry="0.59" style="fill:#455a64"></ellipse><path d="M180.8,175.53V169h-1.08v6.55a.27.27,0,0,0,.15.22.87.87,0,0,0,.77,0A.26.26,0,0,0,180.8,175.53Z" style="fill:#37474f"></path><path d="M179.87,168.76a.81.81,0,0,1,.77,0,.23.23,0,0,1,0,.44.87.87,0,0,1-.77,0A.23.23,0,0,1,179.87,168.76Z" style="fill:#455a64"></path><path d="M121.1,181.14,90.56,200a11.61,11.61,0,0,0-4,4.31s-11.88,24.83-11.88,24.83-.07.14-.11.2l-.07.16c-2.25,4.68-.5,9.6,5.54,13.09,9.86,5.69,26.85,4.46,38-2.76l26.05-15.59a3.24,3.24,0,0,0,1.43-2.68l-1.34-27.17a3.6,3.6,0,0,0-1.62-2.64L124.14,181.1A3.27,3.27,0,0,0,121.1,181.14Z" style="fill:#e0e0e0"></path><path d="M100.14,216.21l-.89,26.59a30,30,0,0,1-3.85.14,28.92,28.92,0,0,1-13-2.73l6.88-25a22,22,0,0,0,7.6,1.22A29.18,29.18,0,0,0,100.14,216.21Z" style="fill:#023E02"></path><path d="M79.63,238.42l6.79-24.72q-.4-.28-.75-.57a4.58,4.58,0,0,1-1.08-1.46c-3.78,7.51-8.4,18-8.45,18.09l-.15.29,0,.12c-1.48,3.24,2,6.71,3.23,7.86l.13.11C79.5,238.32,79.63,238.42,79.63,238.42Z" style="fill:#023E02"></path><path d="M118.74,235.51l-2.49,1.62c-3.19,2.07-9.88,4.86-13.55,5.35l.27-26.72a22.58,22.58,0,0,0,6.1-2.06c2.66-1.26,6.38-3.25,7.87-4.14Z" style="fill:#023E02"></path><path d="M121.1,181.14a3.27,3.27,0,0,1,3,0l18.38,10.62c.85.49.82,1.23-.05,1.66l-34.81,17.46c-6,2.9-14.4,3.16-18.88.57S85.1,203.7,90.56,200Z" style="fill:#fff"></path><path d="M121.1,181.14l-16.61,10.24,16.88-9.22a2.69,2.69,0,0,1,2.47,0l18.38,9.42L124.14,181.1A3.27,3.27,0,0,0,121.1,181.14Z" style="fill:#ebebeb"></path><path d="M96.62,226.51c-11.43.15-14-4.12-15.63-8.54l-1.51,3c1.67,4.42,5.71,8.55,17.14,8.54s24.25-7.3,24.25-7.3v-3S108,226.37,96.62,226.51Z" style="fill:#e0e0e0"></path><path d="M138.63,214.51a6.32,6.32,0,0,0-2.87,5c0,1.83,1.28,2.57,2.87,1.66a6.36,6.36,0,0,0,2.87-5C141.5,214.34,140.21,213.59,138.63,214.51Z" style="fill:#023E02"></path><path d="M129.61,219.73a6.32,6.32,0,0,0-2.87,5c0,1.83,1.28,2.57,2.87,1.66a6.36,6.36,0,0,0,2.87-5C132.48,219.56,131.19,218.81,129.61,219.73Z" style="fill:#023E02"></path><path d="M123.8,189.19a.53.53,0,0,0-.61.45.63.63,0,0,0,0,.27l-.9.47-3.5,1.83-10.62,5.56-5.65,3c-1.81,1-3.47,1.89-4.91,2.67l-3.46,1.89c-.41.24-.78.35-.9.66a1.33,1.33,0,0,0-.12.6,1.4,1.4,0,0,0,.58.23c.32.06.61-.19,1-.41l3.46-1.91c1.43-.79,3.1-1.7,4.88-2.71l5.56-3.16,10.38-6,3.42-2,.91-.53a.64.64,0,0,0,.25.12.54.54,0,0,0,.16-1.06Z" style="fill:#e0e0e0"></path><path d="M93.14,206.76a1.36,1.36,0,0,1-.12-.6c0-.33.31-.57.6-.94l2.53-3c1-1.25,2.26-2.73,3.59-4.28l4.16-4.86,7.86-9.05c1.07-1.24,2-2.27,2.59-3l.72-.84.19-.22c0-.06.17,0,.17,0s.08.11,0,.15l-.18.23-.69.87-2.46,3.09-7.47,9.37-4,5c-1.29,1.59-2.52,3-3.55,4.3s-1.91,2.31-2.52,3c-.32.35-.5.69-.82.75A1.36,1.36,0,0,1,93.14,206.76Z" style="fill:#023E02"></path><path d="M116,179.84a.54.54,0,0,1-.4.65.53.53,0,0,1-.64-.4.54.54,0,0,1,.4-.65A.55.55,0,0,1,116,179.84Z" style="fill:#023E02"></path><polygon points="132.5 197.13 132.5 173.94 137.42 171.1 137.42 194.3 132.5 197.13" style="fill:#e0e0e0"></polygon><polygon points="132.5 173.94 125.94 170.15 125.94 193.35 132.5 197.13 132.5 173.94" style="fill:#e6e6e6"></polygon><polygon points="137.42 171.1 130.86 167.31 125.94 170.15 132.5 173.94 137.42 171.1" style="fill:#f5f5f5"></polygon><polygon points="127.58 172.99 130.86 174.88 130.86 176.78 127.58 174.88 127.58 172.99" style="fill:#023E02"></polygon><polygon points="127.58 172.99 127.77 173.1 127.77 174.77 127.58 174.88 127.58 172.99" style="opacity:0.1"></polygon><polygon points="130.86 176.78 127.58 174.88 127.77 174.77 130.86 176.56 130.86 176.78" style="opacity:0.2"></polygon><path d="M135.78,170.52v-7h-2.32v7a.58.58,0,0,0,.34.48,1.82,1.82,0,0,0,1.64,0A.58.58,0,0,0,135.78,170.52Z" style="fill:#37474f"></path><path d="M133.8,163.09a1.82,1.82,0,0,1,1.64,0,.5.5,0,0,1,0,.94,1.76,1.76,0,0,1-1.64,0A.5.5,0,0,1,133.8,163.09Z" style="fill:#455a64"></path></g><g id="freepik--ship--inject-350"><path id="freepik--shadow--inject-350" d="M387.26,277.44c3.82,2.2,15.78,7,31.78,9.26a120.87,120.87,0,0,0,20.08,1.2,107.86,107.86,0,0,0,16.9-1.69c9.5-18.74-8.84-35.95-15.26-39.66l-89.87-51.88-51.58,29.78a1.28,1.28,0,0,0,0,2.21Z" style="fill:#023E02;opacity:0.4"></path><path d="M312.47,210.38,404,263.22v-9.89c3.82,2.21,15.78,7,31.77,9.27a123.13,123.13,0,0,0,20.08,1.2,109,109,0,0,0,16.9-1.7l-7.23,5A70.22,70.22,0,0,1,428,279.65c-18.89.65-31.12-3.26-39-7.79l-84.45-48.77a7.16,7.16,0,0,1-3.43-4.7l-3.62-16.66Z" style="fill:#f0f0f0"></path><path d="M310.79,217.35a8.59,8.59,0,0,0-3.45-5c-1.49-.86-2.36,0-1.95,1.89a8.61,8.61,0,0,0,3.45,5C310.33,220.1,311.21,219.25,310.79,217.35Z" style="fill:#263238"></path><path d="M309.89,218.78c.08,0,.09,0,.1,0s.19-.49,0-1.23A7.81,7.81,0,0,0,307,213a1.37,1.37,0,0,0-.65-.23c-.08,0-.1,0-.11,0a1.75,1.75,0,0,0,0,1.23,7.87,7.87,0,0,0,3.08,4.5A1.34,1.34,0,0,0,309.89,218.78Z" style="fill:#455a64"></path><path d="M319.35,222.18a8.59,8.59,0,0,0-3.45-5c-1.49-.86-2.36,0-1.95,1.89a8.61,8.61,0,0,0,3.45,5C318.89,224.93,319.77,224.08,319.35,222.18Z" style="fill:#263238"></path><path d="M318.45,223.61c.08,0,.09,0,.1,0s.19-.49,0-1.24a7.87,7.87,0,0,0-3.07-4.5,1.4,1.4,0,0,0-.65-.23c-.08,0-.1,0-.11,0s-.19.49,0,1.24a7.94,7.94,0,0,0,3.08,4.5A1.34,1.34,0,0,0,318.45,223.61Z" style="fill:#455a64"></path><path d="M327.91,227a8.61,8.61,0,0,0-3.45-5c-1.49-.87-2.36,0-1.95,1.88a8.63,8.63,0,0,0,3.45,5C327.45,229.75,328.33,228.91,327.91,227Z" style="fill:#263238"></path><path d="M327,228.44c.07,0,.09,0,.1,0s.19-.48,0-1.23a7.92,7.92,0,0,0-3.07-4.5,1.39,1.39,0,0,0-.66-.23c-.07,0-.09,0-.1,0s-.19.49,0,1.24a7.86,7.86,0,0,0,3.07,4.49A1.47,1.47,0,0,0,327,228.44Z" style="fill:#455a64"></path><path d="M404,253.33c3.82,2.21,15.78,7,31.77,9.27a123.13,123.13,0,0,0,20.08,1.2,109,109,0,0,0,16.9-1.7c9.5-18.74-8.84-36-15.26-39.65L433.93,236l-16.63,9.6Z" style="fill:#fafafa"></path><path d="M404,253.33c3.82,2.21,15.78,7,31.77,9.27a123.13,123.13,0,0,0,20.08,1.2,109,109,0,0,0,16.9-1.7c9.5-18.74-8.84-36-15.26-39.65L433.93,236l-16.63,9.6Zm2.76-.07,27.85-16.08L457.44,224a43.16,43.16,0,0,1,12.49,13.33c3.34,5.65,6.33,14.29,1.9,23.62a108.29,108.29,0,0,1-16,1.55c-.94,0-1.87,0-2.79,0a122.16,122.16,0,0,1-17.07-1.22A108.9,108.9,0,0,1,406.73,253.26Z" style="fill:#fafafa"></path><path d="M404,253.33c3.82,2.21,15.78,7,31.77,9.27a123.13,123.13,0,0,0,20.08,1.2,109,109,0,0,0,16.9-1.7c9.5-18.74-8.84-36-15.26-39.65L433.93,236l-16.63,9.6Zm2.76-.07,27.85-16.08L457.44,224a43.16,43.16,0,0,1,12.49,13.33c3.34,5.65,6.33,14.29,1.9,23.62a108.29,108.29,0,0,1-16,1.55c-.94,0-1.87,0-2.79,0a122.16,122.16,0,0,1-17.07-1.22A108.9,108.9,0,0,1,406.73,253.26Z" style="fill:#fafafa"></path><path d="M410.13,254.71a116.05,116.05,0,0,0,25.8,6.58A122.15,122.15,0,0,0,453,262.52c.93,0,1.86,0,2.8,0a107,107,0,0,0,16-1.55,22.49,22.49,0,0,0,2.16-8,26.89,26.89,0,0,0-4.06-15.62A43.27,43.27,0,0,0,457.45,224v3.41Z" style="fill:#ebebeb"></path><path d="M410.13,254.71a116.05,116.05,0,0,0,25.8,6.58A122.15,122.15,0,0,0,453,262.52c.93,0,1.86,0,2.8,0a107,107,0,0,0,16-1.55,22.49,22.49,0,0,0,2.16-8,28.4,28.4,0,0,0-4.06-12.21,43.27,43.27,0,0,0-12.48-13.33l-22.87,13.2Z" style="fill:#37474f"></path><path d="M457.45,230a43.15,43.15,0,0,1,12.48,13.33,28.94,28.94,0,0,1,3.92,10.91,22.66,22.66,0,0,1-2,6.74,107,107,0,0,1-16,1.55c-.94,0-1.87,0-2.8,0a122.15,122.15,0,0,1-17.06-1.23,119.37,119.37,0,0,1-23.11-5.57l21.76-12.57Z" style="fill:#455a64"></path><path d="M462.15,240.19v-.52a1,1,0,0,0-.45-.79l-3.37-1.95a1,1,0,0,0-.91,0l-11.93,6.89a1,1,0,0,0-.45.79v.52a1,1,0,0,0,.45.79l3.37,2a1,1,0,0,0,.91,0L461.7,241A1,1,0,0,0,462.15,240.19Z" style="fill:#ebebeb"></path><path d="M449.32,246.4V248a.87.87,0,0,0,.45-.12L461.7,241a1,1,0,0,0,.45-.79v-.52a1,1,0,0,0-.37-.74.27.27,0,0,1-.08.47l-11.93,6.89A.94.94,0,0,1,449.32,246.4Z" style="fill:#e0e0e0"></path><path d="M461.7,239.4l-11.93,6.89a1,1,0,0,1-.91,0l-3.37-1.94c-.25-.15-.25-.39,0-.53l11.93-6.89a1,1,0,0,1,.91,0l3.37,1.95A.27.27,0,0,1,461.7,239.4Z" style="fill:#fafafa"></path><path d="M445,250.08v-.52a1,1,0,0,0-.46-.79l-3.37-1.94a1,1,0,0,0-.91,0l-11.93,6.88a1,1,0,0,0-.45.79V255a1,1,0,0,0,.45.79l3.37,1.94a1,1,0,0,0,.91,0l11.93-6.89A1,1,0,0,0,445,250.08Z" style="fill:#ebebeb"></path><path d="M432.2,256.29v1.58a.94.94,0,0,0,.45-.11l11.93-6.89a1,1,0,0,0,.46-.79v-.52a1,1,0,0,0-.38-.73c.17.14.14.34-.08.47l-11.93,6.88A.91.91,0,0,1,432.2,256.29Z" style="fill:#e0e0e0"></path><path d="M444.58,249.3l-11.93,6.88a1,1,0,0,1-.91,0l-3.37-1.94a.28.28,0,0,1,0-.53l11.93-6.88a1,1,0,0,1,.91,0l3.37,1.94A.28.28,0,0,1,444.58,249.3Z" style="fill:#fafafa"></path><polygon points="448.9 227.39 403.97 253.33 403.97 263.22 297.49 201.73 350.99 170.85 448.9 227.39" style="fill:#fafafa"></polygon><path d="M406.73,253.26c.92.43,2.06.92,3.4,1.45l47.32-27.32V224Z" style="fill:#e0e0e0"></path><polygon points="403.97 260.75 301.77 201.74 350.99 173.32 446.76 228.63 448.9 227.39 350.99 170.85 297.49 201.73 403.97 263.22 403.97 260.75" style="fill:#fafafa"></polygon><polygon points="350.99 173.32 350.99 178.26 306.05 204.21 301.77 201.74 350.99 173.32" style="fill:#e0e0e0"></polygon><polygon points="446.76 228.63 442.49 231.1 350.99 178.26 350.99 173.32 446.76 228.63" style="fill:#e6e6e6"></polygon><polygon points="442.49 231.1 350.99 178.26 306.05 204.21 403.97 260.75 403.97 253.33 442.49 231.1" style="fill:#37474f"></polygon><polygon points="439.64 232.74 403.97 253.33 403.97 260.75 308.9 205.85 350.99 181.55 439.64 232.74" style="fill:#455a64"></polygon><path d="M425.28,229.93a2,2,0,0,1,.1.21l.09.16c2.33,4.86.51,10-5.77,13.6-10.25,5.92-27.92,4.64-39.46-2.86l-27.1-16.22a2.56,2.56,0,0,1-1.48-2.77c0-1.34,1.61-2.42,1.61-2.42Z" style="fill:#37474f"></path><path d="M358.31,193.48l-29.47,17a1.38,1.38,0,0,1-1.25,0l-6.52-3.81a1.38,1.38,0,0,0-1.25,0l-.74.42a1.38,1.38,0,0,1-1.25,0l-6.58-3.78c-.35-.2-.35-.52,0-.72L345.19,183a1.38,1.38,0,0,1,1.25,0l8.51,4.93c.35.19.35.52,0,.72l-1.24.72a.39.39,0,0,0,0,.73l4.6,2.65A.38.38,0,0,1,358.31,193.48Z" style="fill:#37474f"></path><polygon points="318.96 206.35 354.92 185.59 354.92 171.39 318.96 192.15 318.96 206.35" style="fill:#e6e6e6"></polygon><polygon points="313.29 203.07 313.29 188.87 318.96 192.15 318.96 206.35 313.29 203.07" style="fill:#e0e0e0"></polygon><polygon points="313.29 188.87 349.24 168.11 354.92 171.39 318.96 192.15 313.29 188.87" style="fill:#f5f5f5"></polygon><polygon points="350.12 177.94 346.34 180.13 346.34 182.31 350.12 180.13 350.12 177.94" style="fill:#023E02"></polygon><polygon points="350.12 177.94 349.91 178.07 349.91 180 350.12 180.13 350.12 177.94" style="opacity:0.1"></polygon><polygon points="346.34 182.31 350.12 180.13 349.91 180 346.34 182.06 346.34 182.31" style="opacity:0.2"></polygon><polygon points="344.45 181.22 340.66 183.41 340.66 185.59 344.45 183.41 344.45 181.22" style="fill:#023E02"></polygon><polygon points="344.45 181.22 344.23 181.35 344.23 183.28 344.45 183.41 344.45 181.22" style="opacity:0.1"></polygon><polygon points="340.66 185.59 344.45 183.41 344.23 183.28 340.66 185.34 340.66 185.59" style="opacity:0.2"></polygon><polygon points="338.77 184.5 334.99 186.68 334.99 188.87 338.77 186.68 338.77 184.5" style="fill:#023E02"></polygon><polygon points="338.77 184.5 338.55 184.62 338.55 186.56 338.77 186.68 338.77 184.5" style="opacity:0.1"></polygon><polygon points="334.99 188.87 338.77 186.68 338.55 186.56 334.99 188.62 334.99 188.87" style="opacity:0.2"></polygon><polygon points="333.09 187.78 329.31 189.96 329.31 192.15 333.09 189.96 333.09 187.78" style="fill:#023E02"></polygon><polygon points="333.09 187.78 332.88 187.9 332.88 189.83 333.09 189.96 333.09 187.78" style="opacity:0.1"></polygon><polygon points="329.31 192.15 333.09 189.96 332.88 189.83 329.31 191.89 329.31 192.15" style="opacity:0.2"></polygon><polygon points="327.42 191.05 323.63 193.24 323.63 195.42 327.42 193.24 327.42 191.05" style="fill:#023E02"></polygon><polygon points="327.42 191.05 327.2 191.18 327.2 193.11 327.42 193.24 327.42 191.05" style="opacity:0.1"></polygon><polygon points="323.63 195.42 327.42 193.24 327.2 193.11 323.63 195.17 323.63 195.42" style="opacity:0.2"></polygon><polygon points="328.42 209.63 328.43 203.07 356.81 186.68 356.81 193.24 328.42 209.63" style="fill:#f0f0f0"></polygon><polygon points="328.42 209.63 322.75 206.35 322.75 199.79 328.43 203.07 328.42 209.63" style="fill:#e0e0e0"></polygon><polygon points="322.75 199.79 351.13 183.41 356.81 186.68 328.43 203.07 322.75 199.79" style="fill:#fafafa"></polygon><polygon points="353.02 191.05 349.24 193.24 349.24 195.42 353.02 193.24 353.02 191.05" style="fill:#023E02"></polygon><polygon points="353.02 191.05 352.81 191.18 352.81 193.11 353.02 193.24 353.02 191.05" style="opacity:0.1"></polygon><polygon points="349.24 195.42 353.02 193.24 352.81 193.11 349.24 195.17 349.24 195.42" style="opacity:0.2"></polygon><polygon points="347.35 194.33 343.56 196.51 343.56 198.7 347.35 196.51 347.35 194.33" style="fill:#023E02"></polygon><polygon points="347.35 194.33 347.13 194.46 347.13 196.39 347.35 196.51 347.35 194.33" style="opacity:0.1"></polygon><polygon points="343.56 198.7 347.35 196.51 347.13 196.39 343.56 198.45 343.56 198.7" style="opacity:0.2"></polygon><polygon points="341.67 197.61 337.89 199.79 337.89 201.98 341.67 199.79 341.67 197.61" style="fill:#023E02"></polygon><polygon points="341.67 197.61 341.45 197.73 341.45 199.67 341.67 199.79 341.67 197.61" style="opacity:0.1"></polygon><polygon points="337.89 201.98 341.67 199.79 341.45 199.67 337.89 201.72 337.89 201.98" style="opacity:0.2"></polygon><polygon points="335.99 200.88 332.21 203.07 332.21 205.25 335.99 203.07 335.99 200.88" style="fill:#023E02"></polygon><polygon points="335.99 200.88 335.78 201.01 335.78 202.94 335.99 203.07 335.99 200.88" style="opacity:0.1"></polygon><polygon points="332.21 205.25 335.99 203.07 335.78 202.94 332.21 205 332.21 205.25" style="opacity:0.2"></polygon><polygon points="318.96 192.15 318.96 183.41 313.29 180.13 313.29 188.87 318.96 192.15" style="fill:#e0e0e0"></polygon><polygon points="318.96 183.41 326.53 179.03 326.53 187.77 318.96 192.15 318.96 183.41" style="fill:#e6e6e6"></polygon><polygon points="313.29 180.13 320.86 175.76 326.53 179.03 318.96 183.41 313.29 180.13" style="fill:#f5f5f5"></polygon><polygon points="324.64 182.31 320.86 184.5 320.86 186.68 324.64 184.5 324.64 182.31" style="fill:#023E02"></polygon><polygon points="324.64 182.31 324.42 182.44 324.42 184.37 324.64 184.5 324.64 182.31" style="opacity:0.1"></polygon><polygon points="320.86 186.68 324.64 184.5 324.42 184.37 320.86 186.43 320.86 186.68" style="opacity:0.2"></polygon><path d="M316.09,180.07v-6.39h2.07v6.39a.51.51,0,0,1-.31.43,1.63,1.63,0,0,1-1.46,0A.52.52,0,0,1,316.09,180.07Z" style="fill:#37474f"></path><ellipse cx="317.12" cy="173.68" rx="1.03" ry="0.6" style="fill:#455a64"></ellipse><path d="M316.57,173.64V167h1.1v6.66a.26.26,0,0,1-.16.22.89.89,0,0,1-.78,0A.26.26,0,0,1,316.57,173.64Z" style="fill:#37474f"></path><path d="M317.51,166.75a.89.89,0,0,0-.78,0,.24.24,0,0,0,0,.45.89.89,0,0,0,.78,0A.24.24,0,0,0,317.51,166.75Z" style="fill:#455a64"></path><path d="M377.27,179.34l31.06,19.15a11.91,11.91,0,0,1,4.07,4.38s12.08,25.25,12.08,25.25a2,2,0,0,1,.1.21l.08.15c2.29,4.76.51,9.77-5.63,13.31-10,5.79-27.31,4.54-38.6-2.8l-26.5-15.86a3.28,3.28,0,0,1-1.45-2.71l1.37-27.63a3.65,3.65,0,0,1,1.64-2.69l18.7-10.8A3.32,3.32,0,0,1,377.27,179.34Z" style="fill:#e0e0e0"></path><path d="M398.59,215l.91,27a30.67,30.67,0,0,0,3.9.14,29.58,29.58,0,0,0,13.21-2.77l-7-25.47a22.55,22.55,0,0,1-7.73,1.25C400.79,215.19,399.68,215.12,398.59,215Z" style="fill:#023E02"></path><path d="M419.44,237.59l-6.9-25.14c.27-.19.52-.38.76-.58a4.84,4.84,0,0,0,1.1-1.48c3.84,7.63,8.54,18.28,8.59,18.39s.1.2.15.29l.06.12c1.5,3.3-2,6.83-3.29,8l-.13.11Z" style="fill:#023E02"></path><path d="M379.67,234.63l2.53,1.64c3.25,2.11,10.06,4.95,13.79,5.45l-.28-27.18a23,23,0,0,1-6.2-2.08c-2.7-1.29-6.49-3.31-8-4.22Z" style="fill:#023E02"></path><path d="M377.27,179.34a3.32,3.32,0,0,0-3.08,0l-18.7,10.8c-.86.49-.83,1.25.06,1.69l35.39,17.75c6.05,3,14.65,3.22,19.2.59s3.75-7.84-1.81-11.64Z" style="fill:#fff"></path><path d="M377.27,179.34l16.89,10.42L377,180.38a2.71,2.71,0,0,0-2.51,0l-18.69,9.58,18.39-10.62A3.32,3.32,0,0,1,377.27,179.34Z" style="fill:#ebebeb"></path><path d="M402.16,225.48c11.63.15,14.2-4.19,15.9-8.69l1.53,3c-1.69,4.5-5.8,8.7-17.43,8.69s-24.65-7.43-24.65-7.43v-3S390.56,225.34,402.16,225.48Z" style="fill:#e0e0e0"></path><path d="M359.45,213.27a6.47,6.47,0,0,1,2.92,5.06c0,1.86-1.31,2.61-2.92,1.68a6.45,6.45,0,0,1-2.92-5C356.53,213.1,357.84,212.34,359.45,213.27Z" style="fill:#023E02"></path><path d="M368.62,218.58a6.45,6.45,0,0,1,2.92,5.06c0,1.86-1.31,2.61-2.92,1.68a6.45,6.45,0,0,1-2.92-5C365.7,218.4,367,217.65,368.62,218.58Z" style="fill:#023E02"></path><path d="M374.53,187.52a.55.55,0,0,1,.62.46.66.66,0,0,1,0,.28l.92.48,3.56,1.86,10.79,5.65,5.75,3.05c1.84,1,3.53,1.92,5,2.71l3.52,1.93c.42.25.79.36.91.67a.49.49,0,0,1-.46.85c-.33.06-.62-.2-1.06-.42l-3.51-1.94c-1.45-.81-3.16-1.73-5-2.76l-5.66-3.22L379.35,191l-3.48-2-.93-.54a.45.45,0,0,1-.25.12.54.54,0,0,1-.62-.46A.55.55,0,0,1,374.53,187.52Z" style="fill:#e0e0e0"></path><path d="M405.71,205.4a1.45,1.45,0,0,0,.12-.62c0-.33-.31-.57-.61-1l-2.57-3.08c-1.07-1.27-2.3-2.77-3.66-4.34l-4.23-5-8-9.2c-1.08-1.26-2-2.3-2.63-3l-.74-.85-.19-.23s-.17,0-.17,0-.08.11,0,.16l.18.23.7.88,2.51,3.14,7.59,9.53c1.4,1.72,2.79,3.45,4.09,5.06s2.56,3.1,3.61,4.38,1.95,2.35,2.56,3.1c.33.36.51.71.84.77A1.4,1.4,0,0,0,405.71,205.4Z" style="fill:#023E02"></path><path d="M382.51,178a.55.55,0,0,0,.41.66.54.54,0,1,0-.41-.66Z" style="fill:#023E02"></path><polygon points="365.68 195.61 365.68 172.02 360.68 169.13 360.68 192.72 365.68 195.61" style="fill:#e0e0e0"></polygon><polygon points="365.68 172.02 372.35 168.17 372.35 191.76 365.68 195.61 365.68 172.02" style="fill:#e6e6e6"></polygon><polygon points="360.68 169.13 367.35 165.28 372.35 168.17 365.68 172.02 360.68 169.13" style="fill:#f5f5f5"></polygon><polygon points="370.69 171.05 367.35 172.98 367.35 174.9 370.69 172.98 370.69 171.05" style="fill:#023E02"></polygon><polygon points="370.69 171.05 370.49 171.16 370.49 172.87 370.69 172.98 370.69 171.05" style="opacity:0.1"></polygon><polygon points="367.35 174.9 370.69 172.98 370.49 172.87 367.35 174.68 367.35 174.9" style="opacity:0.2"></polygon><path d="M362.35,168.55v-7.08h2.36v7.08a.59.59,0,0,1-.35.48,1.89,1.89,0,0,1-1.67,0A.58.58,0,0,1,362.35,168.55Z" style="fill:#37474f"></path><path d="M364.36,161a1.82,1.82,0,0,0-1.67,0c-.46.26-.46.69,0,1a1.89,1.89,0,0,0,1.67,0C364.82,161.68,364.82,161.25,364.36,161Z" style="fill:#455a64"></path></g></g><g id="freepik--Character--inject-350"><g id="freepik--character--inject-350"><g id="freepik--Shadows--inject-350" style="opacity:0.4"><path d="M249.29,461.46c-6.24-3.6-16.36-3.6-22.6,0s-6.23,9.44,0,13,16.36,3.6,22.6,0S255.52,465.06,249.29,461.46Z" style="fill:#023E02"></path><path d="M183.11,423.27c-6.24-3.6-16.35-3.6-22.59,0s-6.24,9.44,0,13.05,16.35,3.6,22.59,0S189.35,426.87,183.11,423.27Z" style="fill:#023E02"></path><path d="M116.93,385.09c-6.24-3.61-16.35-3.61-22.59,0s-6.24,9.44,0,13,16.35,3.6,22.59,0S123.17,388.69,116.93,385.09Z" style="fill:#023E02"></path><path d="M389.08,380.71c-6.24-3.6-16.35-3.6-22.59,0s-6.24,9.44,0,13.05,16.35,3.6,22.59,0S395.32,384.31,389.08,380.71Z" style="fill:#023E02"></path><path d="M322.91,342.52c-6.24-3.6-16.36-3.6-22.6,0s-6.24,9.45,0,13.05,16.36,3.6,22.6,0S329.14,346.13,322.91,342.52Z" style="fill:#023E02"></path><path d="M256.73,304.34c-6.24-3.6-16.36-3.6-22.59,0s-6.24,9.44,0,13,16.35,3.6,22.59,0S263,307.94,256.73,304.34Z" style="fill:#023E02"></path><path d="M84.53,379.24l171,98.71a4.56,4.56,0,0,0,4.16,0L396,399.26a1.27,1.27,0,0,0,0-2.4L225,298.14a4.62,4.62,0,0,0-4.16,0L84.53,376.84A1.27,1.27,0,0,0,84.53,379.24Z" style="fill:#023E02"></path></g><g id="freepik--Dock--inject-350"><path d="M236.62,200.61V312h0c0,1.26.83,2.51,2.49,3.47a13.26,13.26,0,0,0,12,0c1.66-1,2.49-2.21,2.49-3.47V200.61Z" style="fill:#263238"></path><path d="M239.11,204.08a13.26,13.26,0,0,0,12,0c3.32-1.92,3.32-5,0-6.94a13.32,13.32,0,0,0-12,0C235.79,199.06,235.79,202.16,239.11,204.08Z" style="fill:#37474f"></path><polygon points="239.67 204.38 240.14 208.11 240.77 204.83 243.25 202.2 239.67 204.38" style="fill:#455a64"></polygon><polygon points="242.01 205.18 242.33 207.69 242.78 205.33 243.33 203.41 242.01 205.18" style="fill:#455a64"></polygon><path d="M299,263.17a22.77,22.77,0,0,1-4.17-.4c-17.71-3.22-39.31-24.8-45.31-45.27a.93.93,0,1,1,1.78-.53c5.73,19.54,27,40.91,43.86,44,6.55,1.19,11.6-.48,15-5a.93.93,0,1,1,1.48,1.12A15.11,15.11,0,0,1,299,263.17Z" style="fill:#023E02"></path><path d="M302.8,238.8V350.16h0c0,1.26.83,2.51,2.49,3.47a13.26,13.26,0,0,0,12,0c1.66-1,2.49-2.21,2.49-3.47V238.8Z" style="fill:#263238"></path><path d="M305.29,242.27a13.26,13.26,0,0,0,12,0c3.31-1.91,3.31-5,0-6.94a13.32,13.32,0,0,0-12,0C302,237.25,302,240.36,305.29,242.27Z" style="fill:#37474f"></path><polygon points="305.85 242.57 306.32 246.3 306.95 243.02 309.43 240.39 305.85 242.57" style="fill:#455a64"></polygon><polygon points="308.19 243.37 308.51 245.88 308.96 243.52 309.5 241.61 308.19 243.37" style="fill:#455a64"></polygon><path d="M363.3,300.27a22.69,22.69,0,0,1-4.17-.4c-17.71-3.22-39.31-24.8-45.31-45.27a.93.93,0,1,1,1.78-.53c5.73,19.54,27,40.91,43.86,44,6.55,1.19,11.59-.48,15-5a.94.94,0,0,1,1.31-.18.93.93,0,0,1,.18,1.3A15.11,15.11,0,0,1,363.3,300.27Z" style="fill:#023E02"></path><path d="M369,277V388.35h0c0,1.26.83,2.52,2.49,3.47a13.24,13.24,0,0,0,12,0c1.66-.95,2.49-2.21,2.49-3.47V277Z" style="fill:#263238"></path><path d="M371.47,280.47a13.3,13.3,0,0,0,12,0c3.32-1.92,3.32-5,0-6.94a13.24,13.24,0,0,0-12,0C368.15,275.44,368.15,278.55,371.47,280.47Z" style="fill:#37474f"></path><polygon points="372.03 280.76 372.5 284.5 373.13 281.21 375.61 278.58 372.03 280.76" style="fill:#455a64"></polygon><polygon points="374.37 281.56 374.68 284.07 375.14 281.71 375.68 279.8 374.37 281.56" style="fill:#455a64"></polygon><path d="M118.94,360.56l136.3-78.69a4.61,4.61,0,0,0,2.08-3.61v-4.21a4.61,4.61,0,0,0-2.08-3.6l-27.06-15.62a4.62,4.62,0,0,0-4.16,0L87.73,333.53a4.58,4.58,0,0,0-2.08,3.6v4.2a4.61,4.61,0,0,0,2.08,3.61l27.05,15.62A4.62,4.62,0,0,0,118.94,360.56Z" style="fill:#263238"></path><path d="M87.73,335.93l27.05,15.62a4.62,4.62,0,0,0,4.16,0l136.3-78.7a1.27,1.27,0,0,0,0-2.4l-27.06-15.62a4.62,4.62,0,0,0-4.16,0L87.73,333.53A1.27,1.27,0,0,0,87.73,335.93Z" style="fill:#455a64"></path><path d="M116.87,352v9a4.49,4.49,0,0,1-2.1-.49l-27-15.62a4.6,4.6,0,0,1-2.07-3.61v-4.21a4.68,4.68,0,0,1,1.69-3.33c-.75.66-.62,1.54.38,2.14l27.05,15.62A4.26,4.26,0,0,0,116.87,352Z" style="fill:#37474f"></path><path d="M154.05,380.83l136.3-78.69a4.59,4.59,0,0,0,2.08-3.6v-4.21a4.61,4.61,0,0,0-2.08-3.61L263.29,275.1a4.62,4.62,0,0,0-4.16,0L122.84,353.8a4.58,4.58,0,0,0-2.08,3.6v4.21a4.59,4.59,0,0,0,2.08,3.6l27,15.62A4.62,4.62,0,0,0,154.05,380.83Z" style="fill:#263238"></path><path d="M122.84,356.2l27,15.62a4.62,4.62,0,0,0,4.16,0l136.3-78.69a1.27,1.27,0,0,0,0-2.41L263.29,275.1a4.62,4.62,0,0,0-4.16,0L122.84,353.8A1.27,1.27,0,0,0,122.84,356.2Z" style="fill:#455a64"></path><path d="M152,372.32v9a4.49,4.49,0,0,1-2.1-.5l-27-15.62a4.59,4.59,0,0,1-2.07-3.61v-4.2a4.68,4.68,0,0,1,1.69-3.33c-.75.65-.61,1.53.38,2.13l27.05,15.62A4.26,4.26,0,0,0,152,372.32Z" style="fill:#37474f"></path><path d="M189.17,401.1l136.29-78.69a4.63,4.63,0,0,0,2.09-3.6V314.6a4.58,4.58,0,0,0-2.08-3.6l-27.06-15.62a4.56,4.56,0,0,0-4.16,0L158,374.07a4.59,4.59,0,0,0-2.08,3.6v4.21a4.58,4.58,0,0,0,2.08,3.6L185,401.1A4.56,4.56,0,0,0,189.17,401.1Z" style="fill:#263238"></path><path d="M158,376.47,185,392.09a4.54,4.54,0,0,0,4.15,0L325.47,313.4a1.27,1.27,0,0,0,0-2.4l-27.06-15.62a4.56,4.56,0,0,0-4.16,0L158,374.07A1.27,1.27,0,0,0,158,376.47Z" style="fill:#455a64"></path><path d="M187.09,392.59v9a4.31,4.31,0,0,1-2.09-.5L158,385.48a4.6,4.6,0,0,1-2.08-3.61v-4.21a4.65,4.65,0,0,1,1.69-3.32c-.74.65-.61,1.54.39,2.13L185,392.09A4.09,4.09,0,0,0,187.09,392.59Z" style="fill:#37474f"></path><path d="M224.28,421.37l136.3-78.69a4.58,4.58,0,0,0,2.08-3.6v-4.21a4.58,4.58,0,0,0-2.08-3.6l-27.06-15.62a4.62,4.62,0,0,0-4.16,0L193.07,394.34a4.61,4.61,0,0,0-2.08,3.6v4.21a4.58,4.58,0,0,0,2.08,3.6l27.05,15.62A4.56,4.56,0,0,0,224.28,421.37Z" style="fill:#263238"></path><path d="M193.07,396.74l27.05,15.62a4.56,4.56,0,0,0,4.16,0l136.3-78.69a1.27,1.27,0,0,0,0-2.4l-27.06-15.62a4.62,4.62,0,0,0-4.16,0L193.07,394.34A1.27,1.27,0,0,0,193.07,396.74Z" style="fill:#455a64"></path><path d="M222.21,412.86v9a4.37,4.37,0,0,1-2.1-.5l-27.05-15.62a4.57,4.57,0,0,1-2.07-3.61v-4.2a4.66,4.66,0,0,1,1.69-3.33c-.75.65-.61,1.54.38,2.13l27.05,15.62A4.16,4.16,0,0,0,222.21,412.86Z" style="fill:#37474f"></path><path d="M259.4,441.65,395.69,363a4.58,4.58,0,0,0,2.08-3.6v-4.21a4.59,4.59,0,0,0-2.08-3.6l-27.06-15.62a4.62,4.62,0,0,0-4.16,0l-136.3,78.7a4.58,4.58,0,0,0-2.08,3.6v4.2a4.61,4.61,0,0,0,2.08,3.61l27.06,15.62A4.62,4.62,0,0,0,259.4,441.65Z" style="fill:#263238"></path><path d="M228.18,417l27,15.62a4.62,4.62,0,0,0,4.16,0l136.31-78.7a1.27,1.27,0,0,0,0-2.4l-27.06-15.62a4.62,4.62,0,0,0-4.16,0l-136.3,78.7A1.27,1.27,0,0,0,228.18,417Z" style="fill:#455a64"></path><path d="M257.32,433.13v9a4.31,4.31,0,0,1-2.09-.5l-27-15.61a4.62,4.62,0,0,1-2.08-3.62v-4.2a4.68,4.68,0,0,1,1.69-3.33c-.74.66-.61,1.54.39,2.14l27,15.61A4.09,4.09,0,0,0,257.32,433.13Z" style="fill:#37474f"></path></g><ellipse id="freepik--shadow--inject-350" cx="248.06" cy="347.64" rx="53.36" ry="30.81" style="opacity:0.2"></ellipse><g id="freepik--character--inject-350"><g id="freepik--Arm--inject-350"><path d="M280.65,208.62a30.19,30.19,0,0,0,2,6.28,24.54,24.54,0,0,1,1.31,7.26c.21,3.18.55,8.08,0,10.91s-3.87,6.71-4.91,7.81a1.64,1.64,0,0,1-2.9-1.24,2.37,2.37,0,0,1-2.62-2.56c-2.22,0-3.32-1.73-3.32-4.14s.9-3.87,0-6.84-.57-8.13-.28-9.47-1.15-6.77-1.15-6.77Z" style="fill:#ffbda7"></path><path d="M276.71,218.21a6.51,6.51,0,0,0-.67,3.49,15.14,15.14,0,0,0,.68,3.51,10.91,10.91,0,0,1,.54,3.68,11.79,11.79,0,0,0,.18,3.5,3.46,3.46,0,0,0,.82,1.4,1.11,1.11,0,0,0,.53.33s0,0,.1-.09a3.16,3.16,0,0,0,.21-.33,21.13,21.13,0,0,0,1.17-3.36,23.13,23.13,0,0,0,.64-3.55c.19-1.19.26-2.41.52-3.61a47.27,47.27,0,0,1-.59,7.3,16.73,16.73,0,0,1-1.13,3.54,3.08,3.08,0,0,1-.27.44,1.08,1.08,0,0,1-.24.24.76.76,0,0,1-.41.13,1.67,1.67,0,0,1-1-.52,4.11,4.11,0,0,1-1-1.69,11.89,11.89,0,0,1-.15-3.74,12,12,0,0,0-.41-3.52,15,15,0,0,1-.49-3.66A6.3,6.3,0,0,1,276.71,218.21Z" style="fill:#f0997a"></path><path d="M279.81,201.62l1.42,7.86s-1.31,2.61-5.39,4.06a10.75,10.75,0,0,1-7.16.19l-1.94-7.62Z" style="fill:#023E02"></path><path d="M279.81,201.62l1.42,7.86s-1.31,2.61-5.39,4.06a10.75,10.75,0,0,1-7.16.19l-1.94-7.62Z" style="opacity:0.2"></path><path d="M280.06,206.55c.19-.19.36-.39.53-.58l-.17-1a12.72,12.72,0,0,1-12.8,4.58l.21.83A13.4,13.4,0,0,0,280.06,206.55Z" style="fill:#fafafa"></path><path d="M280.63,208.7c.13-.13.25-.28.38-.42l-.17-.95a12.67,12.67,0,0,1-12.67,4.4l.21.83A13.43,13.43,0,0,0,280.63,208.7Z" style="fill:#fafafa"></path><path d="M267.69,136.3c6.25,3.47,7.48,7.11,7.9,16.09s1.19,27,1.19,27l3.56,23.46c-.88,1.67-5.91,6.14-13.83,5.11l-6.07-25Z" style="fill:#ebebeb"></path></g><g id="freepik--Bottom--inject-350"><path d="M260.49,340.67s2.81-1.85,2.73-1.87l-3.07-1Z"></path><path d="M292.58,340.38a4.1,4.1,0,0,1-.2,3c-.43.88-5.07,3.43-11.3,3A22.69,22.69,0,0,1,269,341.73a23.47,23.47,0,0,0-4.73-2.59,14.65,14.65,0,0,0-3.88-.78l.08,2.31c-3.08-.21-6.56-1.49-7.54-2.94-.61-1.81-.17-5.33-.17-5.33Z"></path><path d="M273,322.39a8.83,8.83,0,0,0,3.34,5.4,38.76,38.76,0,0,0,5.17,2.95c1.49.76,8,3.11,9.54,4.13,2.42,1.67,2.7,5.81-.1,7.42-2.42,1.38-8.75,2.84-15.36.9-3.6-1.06-7.57-5-12.3-5.38-3-.26-8.7-1.17-10.62-3.47-.58-3.34.28-4.23,1.1-7a11.11,11.11,0,0,0,.62-3.95c-.34-4.13-.69-8.25-1-12.39a2.13,2.13,0,0,1,.11-1.15.64.64,0,0,1,.47-.41l.08.82a3.37,3.37,0,0,0,1,.81,6.07,6.07,0,0,0,1.8.65,6.67,6.67,0,0,1,1.74.37c.39.22.43,1.14.53,1.56.17.7.34,1.41.52,2.11a.43.43,0,0,0,.15.29c.21.13.44-.14.54-.37a8.63,8.63,0,0,0,.51-1.87,2.15,2.15,0,0,1,.38-1.18,2,2,0,0,1,1.38-.45,51.71,51.71,0,0,0,8.1-1.19c1.36-.31,1.49.69,1.48,1.83a37.21,37.21,0,0,0,.19,4.09A40.24,40.24,0,0,0,273,322.39Z" style="fill:#263238"></path><path d="M217.77,321.73c0-2.56.8-3.58,3.4-4.08s9.29.23,10.63,1.55,1.52,1.68,1.31,3.78c-.16,1.69-3.12,2.58-7.87,2.3C217.59,324.83,217.77,321.73,217.77,321.73Z" style="fill:#37474f"></path><path d="M232.11,321.09c-1.17-3.56-9.91-5.09-13.23-1.33a3.56,3.56,0,0,0,1.19,4.77c2.53,1.75,8,1.49,10.13.71S232.11,321.09,232.11,321.09Z" style="fill:#263238"></path><path d="M232.43,358.44c.15,4.27-.42,6.52-2.11,9a8.62,8.62,0,0,1-8.53,3.22c-3.37-.63-7.62-3-8.69-6.56a17.22,17.22,0,0,1-.45-9.36Z"></path><path d="M232.11,321.09a2.56,2.56,0,0,1-1.65,2.71c-1.38.54-2.31.83-5.89.66-2.81-.13-4-.63-5.2-1.73a2.78,2.78,0,0,1-.49-3s-1.08-.28-1.12,2.27-.28,4.51-.38,9.14c-.07,3.45-2.23,13.53-2.29,13.88-1,4.28-1.75,5.69-2.3,8.46-.91,4.54-.29,8,2.14,11.31s10.83,6.4,14.77,1.52c3.22-4,2.93-5.74,2.47-11.25-.14-1.73-.28-3.3-.39-4.77-.31-4.94.6-6,.72-9.27.17-4.65-.45-6.73,0-12.22C233,322.41,233.83,321.49,232.11,321.09Z" style="fill:#263238"></path><path d="M227.66,329.76a9.36,9.36,0,0,0-.82-1.44,6.8,6.8,0,0,0-.52-.68,1.72,1.72,0,0,0-.78-.6,2.75,2.75,0,0,0-2,.4,8.1,8.1,0,0,0-1.83,1.19,3.48,3.48,0,0,0-1.61,2.67A1.78,1.78,0,0,0,222,333c1-.15,1.75-1.24,2.2-2.06a6.59,6.59,0,0,0,.34-.71c0,.09,0,.19,0,.28a3.38,3.38,0,0,0,1.39,2.55,1.83,1.83,0,0,0,1.35.35,1.3,1.3,0,0,0,.95-.81A3.73,3.73,0,0,0,227.66,329.76Zm-4.14.59a5.12,5.12,0,0,1-1,1.41c-.32.29-.84.68-1.26.35a1.09,1.09,0,0,1-.23-1.26,3.61,3.61,0,0,1,1.1-1.38,9.36,9.36,0,0,1,1.35-1c.35-.2.7-.38,1.06-.56-.11.29-.2.59-.31.87A14.42,14.42,0,0,1,223.52,330.35Zm3.46,2.28a1.05,1.05,0,0,1-.89-.28,2.69,2.69,0,0,1-.81-2c0-.49,0-1,0-1.45,0-.23,0-.45,0-.67a4.56,4.56,0,0,0,.14-.64.72.72,0,0,0,.12.25l.08.09a2,2,0,0,1,.19.22,5.45,5.45,0,0,1,.37.47,8.74,8.74,0,0,1,.61,1,10.09,10.09,0,0,1,.5,1.12,2.25,2.25,0,0,1,.23,1.19A.83.83,0,0,1,227,332.63Z" style="fill:#263238"></path><path d="M218.57,276.57c.35-6.82,1.26-13.26,1.26-13.26,2.69-41.07,1.26-49.29,3.36-69.86l49.26-8.09s1.17,68,1,74.81c-.11,5.92.76,63.29.76,63.29-9.07,4.9-20.37,1.46-20.37,1.46s-1-5.12-1.61-11.65c-.74-8.59-3-50.69-3-50.69l-1.21-17.52S242,280.54,241,286.61c-2.24,13.63-6.76,55-6.76,55s-12.07,4.31-21-2.65C213.22,339,217.49,288.47,218.57,276.57Z" style="fill:#023E02"></path><g style="opacity:0.30000000000000004"><path d="M213.71,331.83c5.11,3.34,13,3.8,16.16,3.3-5.5,2.14-10.74.62-16.28-1.66Z" style="fill:#263238"></path><path d="M236.87,235.92c.1-1.28.16-2.33.16-3C237,232.88,237,234,236.87,235.92Z" style="fill:#263238"></path><path d="M231.19,285.76l-5.71,45.68s6.33-44.83,6.41-45.51c1.4-10.36,2.6-19.07,2.88-20.64.74-4.07,1.73-22.12,2.1-29.37-.62,8.21-2.94,26.09-3.26,28.81C233.48,265.91,232.43,275,231.19,285.76Z" style="fill:#263238"></path><path d="M264.14,232.42c.75,5.25,1,28.86,1.12,32s1.87,54.66,1.87,54.66-.81-50-.65-54.26C266.68,259.62,264.14,232.42,264.14,232.42Z" style="fill:#263238"></path><path d="M248.06,245.06l4.61-29s8.91-.78,13.82-5.74c0,0-.87,4.86-12.07,7.78L250,244.72l-.74,17.87Z" style="fill:#263238"></path><path d="M253.16,320.73s8.19,2.75,14.83.66c0,0-5.36,3.56-14.61.74Z" style="fill:#263238"></path></g><path d="M222.86,196.86l-.33,4.19s11,5,30.06,3.57,20.07-6.62,20.07-6.82-.21-12.44-.21-12.44Z" style="fill:#263238"></path><path d="M253.33,205.25h0a1,1,0,0,1-.69-.3c-.58-.62-.51-2.08-.44-3.78,0-.55.05-1.11.05-1.63H253c0,.53,0,1.1-.05,1.66-.06,1.27-.12,2.84.24,3.23a.18.18,0,0,0,.14.06c1.09,0,8-1,8.69-1.09s.6-2.23.53-3.76c0-.51,0-1,0-1.5h.76c0,.47,0,1,0,1.47.09,2.19.17,4.26-1.14,4.53C261.43,204.29,254.65,205.25,253.33,205.25Z" style="fill:#e0e0e0"></path></g><g id="freepik--Top--inject-350"><path d="M272.68,194s0-10.08,0-34.26c0-15.13-1.65-20.73-5-23.43-2.15-1.75-12.7-5.21-12.7-5.21l-17.39-1c-4.09,1-11,3.06-11,3.06s-12.17,12.17-8.36,24.25c2.83,9,5.25,17.45,5.14,23.94-.16,10.32-.47,15.53-.47,15.53a90.2,90.2,0,0,0,30.66,3.19c16-1.13,19.16-6.06,19.16-6.06" style="fill:#fafafa"></path><path d="M272.68,194l-.32-36.3c-.06-3-.17-6-.47-9a41.68,41.68,0,0,0-.66-4.46,19.92,19.92,0,0,0-1.3-4.25,8.92,8.92,0,0,0-2.6-3.42,23.32,23.32,0,0,0-4-1.94c-2.78-1.13-5.64-2.13-8.5-3.08l.11,0-17.39-1h.14l-11,3.08.21-.12a38,38,0,0,0-5,6.56,29.18,29.18,0,0,0-3.29,7.51,17.88,17.88,0,0,0-.39,8.06c.17.66.28,1.31.5,2l.62,2,1.2,4c1.51,5.37,3,10.83,3.18,16.5-.07,5.62-.35,11.17-.52,16.76l-.25-.37a81.45,81.45,0,0,0,12.52,2.64,94.44,94.44,0,0,0,12.79.87,75.07,75.07,0,0,0,12.79-1,37.68,37.68,0,0,0,6.19-1.66,19.74,19.74,0,0,0,2.92-1.34,8.78,8.78,0,0,0,2.49-2,8.69,8.69,0,0,1-2.46,2,20.5,20.5,0,0,1-2.91,1.4,37.74,37.74,0,0,1-6.19,1.77,75.47,75.47,0,0,1-12.82,1.27,89.49,89.49,0,0,1-12.88-.73,83.36,83.36,0,0,1-12.67-2.54l-.26-.07v-.3c.12-5.56.32-11.16.39-16.7-.22-5.51-1.68-10.93-3.21-16.27l-1.21-4-.62-2c-.21-.66-.35-1.38-.52-2.07a18.78,18.78,0,0,1,.37-8.5,29.69,29.69,0,0,1,3.38-7.77,39.33,39.33,0,0,1,5.13-6.74l.09-.09.12,0,11.07-3.05.06,0h.08l17.38,1h.06l.05,0c2.88,1,5.74,2,8.55,3.13a22.68,22.68,0,0,1,4.15,2.08,9.8,9.8,0,0,1,2.8,3.75,20,20,0,0,1,1.31,4.42,43.65,43.65,0,0,1,.63,4.53c.27,3,.35,6.06.38,9.09C272.93,169.79,272.76,181.89,272.68,194Z" style="fill:#e0e0e0"></path><path d="M255.09,151c-2.89-1.3-14-8-16.78-14.24l-.71-6,17.38.66C257.91,134.67,258.43,144.94,255.09,151Z" style="fill:#fafafa"></path><path d="M257.31,142.71c0-.27,0-.55.05-.82-3.65,1.24-8.55,1.61-14.08,1.05l1,.85c.6.05,1.2.09,1.79.11A32.85,32.85,0,0,0,257.31,142.71Z" style="fill:#37474f"></path><path d="M245,138.28a31.83,31.83,0,0,0,12.08-1.47c0-.26-.09-.52-.14-.77-4.52,1.72-11.17,2-18.62.74.13.28.27.56.43.84A54.71,54.71,0,0,0,245,138.28Z" style="fill:#37474f"></path><path d="M257.36,139.67c0-.27,0-.54,0-.8-4.2,1.6-10.23,1.95-17,1q.36.43.75.87c1.49.19,2.94.32,4.35.38A31.74,31.74,0,0,0,257.36,139.67Z" style="fill:#37474f"></path><path d="M256.31,148.08a31,31,0,0,1-5.21.69l1.12.68a30.49,30.49,0,0,0,3.8-.54C256.12,148.64,256.22,148.36,256.31,148.08Z" style="fill:#37474f"></path><path d="M248.14,146.8a32.65,32.65,0,0,0,8.76-1c.06-.27.1-.55.14-.82a32.14,32.14,0,0,1-10,1.05C247.42,146.29,247.78,146.54,248.14,146.8Z" style="fill:#37474f"></path><path d="M261.05,105.18a5.52,5.52,0,0,0,2-2.5,8.3,8.3,0,0,0,.38-3.36A16.87,16.87,0,0,0,261.56,93a12.21,12.21,0,0,0-12.3-6.67,22.56,22.56,0,0,0-3.53.81c-4,1.21-8.07,2.84-10.91,5.91a16.83,16.83,0,0,0-2.1,2.86,13.05,13.05,0,0,0-1.26,2.64,12.56,12.56,0,0,0-.26,5.91,23.23,23.23,0,0,0,.75,3c.62,2,1.18,4.58,1.79,6.56a42.08,42.08,0,0,0,1.86,5.17,41.52,41.52,0,0,0,2,3.91l1-7.22c2.51-.32,4.56.39,6.93-.58A45.28,45.28,0,0,0,252,112a63.14,63.14,0,0,0,6.18-4.36C259.13,106.81,260.08,106,261.05,105.18Z" style="fill:#263238"></path><path d="M244.38,92.36c.07,2.16-2.19,7-5.16,9.79a21.67,21.67,0,0,1,.43,7.3,4,4,0,0,1-.5,1.49,1.83,1.83,0,0,1-1.26.86c-.71.08-1-.34-1.25-.89a19.27,19.27,0,0,0-1.14-2,4.53,4.53,0,0,0-.66-.77c-1.11-1-4.33-2.05-5.69,1.38s1.64,7.88,4.16,8.73c3.55,1.18,4.33-1.83,4.33-1.83l0,14.4c-.2,4.37,5.71,4.86,12.3,4.75,2.68-.05,6.14-1.14,6.65-2.12s-1.57-2-1.57-2l.15-4.68a10.36,10.36,0,0,0,4.86-.37c2.76-.81,3.89-1.77,5.05-5.2,2.44-7.25,1-18.49,0-22.64s-4.06-7.81-5.33-8.39c.08.9-.56,3.19-4.32,3.93C250.72,95,247.82,93.64,244.38,92.36Z" style="fill:#ffbda7"></path><path d="M255.13,126.78a29.71,29.71,0,0,1-10.58-3c-1.71-.83-4.41-2.81-4.88-3.77a10.07,10.07,0,0,0,3.43,4.81c4.57,3.2,12,4.07,12,4.07Z" style="fill:#f0997a"></path><path d="M251.56,107a1.47,1.47,0,1,1-2.94.19,1.49,1.49,0,0,1,1.36-1.62A1.51,1.51,0,0,1,251.56,107Z" style="fill:#263238"></path><path d="M250.81,102.22l-3.52,1.61a2,2,0,0,1,1-2.63A1.88,1.88,0,0,1,250.81,102.22Z" style="fill:#263238"></path><path d="M251.75,115.61l4.46,1.34a2.43,2.43,0,0,1-3,1.59A2.26,2.26,0,0,1,251.75,115.61Z" style="fill:#b16668"></path><path d="M254.36,118.58a3.35,3.35,0,0,0-2.72-2.21,2.23,2.23,0,0,0,1.59,2.17A2.17,2.17,0,0,0,254.36,118.58Z" style="fill:#f28f8f"></path><path d="M264.26,103.15l-3.58-1.25a1.82,1.82,0,0,1,2.36-1.14A1.93,1.93,0,0,1,264.26,103.15Z" style="fill:#263238"></path><path d="M263.46,106.3a1.5,1.5,0,0,1-1.38,1.63,1.54,1.54,0,1,1,1.38-1.63Z" style="fill:#263238"></path><path d="M255.84,113.5l5.42-1.23c-.56-3.09-3.27-6.59-6.51-10.19Z" style="fill:#f0997a"></path><path d="M260,80c-4.89-.92-12.95,2.76-19.47,7.82-9,7-13,12.86-13,12.86a91.92,91.92,0,0,1,15.22-6.35C251.11,91.51,260,80,260,80Z" style="fill:#e0e0e0"></path><path d="M231.13,104.87s-3.24-2-3.65-4.19c0,0,4.41-3.88,8.93-7.57,5.61-4.58,14-10.59,21.59-13,5.44-1.7,8.4,7.65,8.4,7.65a54.11,54.11,0,0,1-2.94,6.81s-2.77-1.77-11.57,1.27a75.16,75.16,0,0,0-12.67,6.27C234.18,105.08,231.13,104.87,231.13,104.87Z" style="fill:#f0f0f0"></path><path d="M259.85,94.12a6.9,6.9,0,0,1,3.61.49,54.11,54.11,0,0,0,2.94-6.81s-2.31-7.3-6.61-7.82C259.8,84.76,259.82,89.64,259.85,94.12Z" style="fill:#e0e0e0"></path><path d="M231.13,104.87c11.14-10.22,21.71-14,28.67-14.52a4.92,4.92,0,0,1,4.74,2.05,4.68,4.68,0,0,1-1.08,2.21s-8.89-2-31.56,12.66A7.7,7.7,0,0,1,231.13,104.87Z" style="fill:#37474f"></path><path d="M233.49,106.26c5.92-5.47,13.63-13.37,25.92-14.71s6.8,6.08,6.8,6.08,2.11-3.92-6.69-2.79S239,102.63,233.49,106.26Z" style="fill:#455a64"></path><path d="M233.49,106.26C243.08,98.76,251,93,259.7,92.33c9.39-.75,8.49,3,5.49,6.68-2.21-3.77-8.08-2.64-16,.28A168.73,168.73,0,0,0,233.49,106.26Z" style="fill:#263238"></path><g id="freepik--Shield--inject-350"><path d="M263.43,83.87a.24.24,0,0,0,0-.18h0l-.32-.32h0a.15.15,0,0,0-.17,0,2.36,2.36,0,0,1-2.35-.46,2.31,2.31,0,0,1-.25-.36v0h0l-.07-.08s-.29-.3-.32-.32h0c-.07-.07-.14-.05-.2,0a5.43,5.43,0,0,1-3.21,2.8.36.36,0,0,0-.19.08.31.31,0,0,0-.12.24c-.15,2.16.73,6,2.79,7.92.12.13.24.25.37.37C262.5,91.41,263.25,86.44,263.43,83.87Z" style="fill:#023E02"></path><path d="M263.43,83.87a.24.24,0,0,0,0-.18h0l-.32-.32h0a.15.15,0,0,0-.17,0,2.36,2.36,0,0,1-2.35-.46,2.31,2.31,0,0,1-.25-.36v0h0l-.07-.08s-.29-.3-.32-.32h0c-.07-.07-.14-.05-.2,0a5.43,5.43,0,0,1-3.21,2.8.36.36,0,0,0-.19.08.31.31,0,0,0-.12.24c-.15,2.16.73,6,2.79,7.92.12.13.24.25.37.37C262.5,91.41,263.25,86.44,263.43,83.87Z" style="fill:#fff;opacity:0.2"></path><path d="M259,93.2c-2.05-1.9-2.93-5.75-2.78-7.91a.43.43,0,0,1,.05-.16l.32.32a.25.25,0,0,0-.05.15A11.62,11.62,0,0,0,259,93.2Z" style="fill:#023E02"></path><path d="M259,93.2c-2.05-1.9-2.93-5.75-2.78-7.91a.43.43,0,0,1,.05-.16l.32.32a.25.25,0,0,0-.05.15A11.62,11.62,0,0,0,259,93.2Z" style="opacity:0.25"></path><path d="M263.43,83.87c-.18,2.57-.93,7.54-4.1,9.71-2.1-1.88-3-5.79-2.84-8a.35.35,0,0,1,.12-.24.34.34,0,0,1,.19-.07,5.43,5.43,0,0,0,3.21-2.8c.06-.1.13-.12.2,0h0l.07.08h0v0a2.44,2.44,0,0,0,2.92,1.13.17.17,0,0,1,.17,0h0A.24.24,0,0,1,263.43,83.87Z" style="fill:#023E02"></path><path d="M260.21,82.44c-.07-.07-.14,0-.2,0a5.43,5.43,0,0,1-3.21,2.8.34.34,0,0,0-.19.07.35.35,0,0,0-.12.24c-.15,2.19.74,6.1,2.84,8A25,25,0,0,0,260.21,82.44Z" style="opacity:0.15"></path></g><path d="M226.55,133.14c-3.05.08-10.62,2.76-16.58,5.08-5.37,2.08-16.16,9.85-19.48,13l0,9.23c6,2.67,10.86,1.36,17.54,0,11.65-2.44,12.7-2.75,12.7-2.75C228.25,155.89,229.6,138.65,226.55,133.14Z" style="fill:#ebebeb"></path><path d="M218.1,135.25c-2.68.9-5.56,2-8.13,3a21.54,21.54,0,0,0-2.27,1l-8,20.41c6.1-.66,9.14-6,13.47-13.43A93.19,93.19,0,0,0,218.1,135.25Z" style="fill:#e0e0e0"></path><path d="M237.67,99.82a10.37,10.37,0,0,1,3.43-.27,2.71,2.71,0,0,1-.68,2.11l.78-.07c.39.33.23,1.25-.7,2-1.29,1-3,1.32-6.5,3.27a14.87,14.87,0,0,0-5.22,5s-2.26,1.78-4.27-.08S225.89,104.22,237.67,99.82Z" style="fill:#f0997a"></path><path d="M212.9,114.85c3-4.72,5.37-6.43,7.42-8.77a12.79,12.79,0,0,1,4.26-3.28c2.44-1.3,5.28-1.92,7.31-2.67a23,23,0,0,1,8.28-1.24c.34.36.1,2.38-2.79,3.08a26.78,26.78,0,0,0-8.77,4.09c-2.87,2-3,3.75-1.37,3.61s3.64-1.75,6.39-2.41c3-.73,4.34,1.12,3.91,1.75s-3,1.07-4.83,3.09a26,26,0,0,1-7.69,6.15,8.43,8.43,0,0,0-2.07,1.1c-1.74,1.89-4.76,8.15-4.76,8.15l-11.11-4.29Z" style="fill:#ffbda7"></path><path d="M227.24,109.67a7.84,7.84,0,0,0,2.27-.87c.73-.38,1.46-.77,2.22-1.11a11.8,11.8,0,0,1,2.38-.76,4.42,4.42,0,0,1,2.58.25,2.52,2.52,0,0,1,1.05.9,1.17,1.17,0,0,1,.18.8.78.78,0,0,1-.23.44,1.5,1.5,0,0,1-.3.23c-.78.45-1.52.71-2.22,1.11a8.46,8.46,0,0,0-1.91,1.38c-.53.56-1.1,1.21-1.68,1.79a25.41,25.41,0,0,1-3.82,3.2,20.3,20.3,0,0,1-2.15,1.28c-.74.42-1.57.63-2.2,1a1.67,1.67,0,0,0-.4.36c-.13.15-.26.3-.38.46-.25.32-.48.65-.71,1-.45.67-.88,1.37-1.29,2.08-.86,1.4-1.65,2.84-2.44,4.27.64-1.51,1.37-3,2.12-4.45.38-.73.78-1.45,1.22-2.15.22-.36.44-.71.68-1.05a6.12,6.12,0,0,1,.39-.5,1.87,1.87,0,0,1,.49-.48c.74-.51,1.54-.73,2.22-1.13a19,19,0,0,0,2.06-1.27,25.17,25.17,0,0,0,3.68-3.16c.59-.57,1.11-1.16,1.72-1.78a8.82,8.82,0,0,1,2.08-1.47c.73-.4,1.55-.69,2.2-1,.6-.18,0-1-.62-1.32a3.86,3.86,0,0,0-2.24-.3,11.36,11.36,0,0,0-2.33.64c-.76.28-1.51.62-2.26,1A7,7,0,0,1,227.24,109.67Z" style="fill:#f0997a"></path><path d="M217.67,130.19l2.94-6.84s-1.85.61-5.91-1.68c-3.81-2.14-4.11-3.5-4.11-3.5l-4.25,5.93s.88,2.1,4.67,3.84A30.07,30.07,0,0,0,217.67,130.19Z" style="fill:#023E02"></path><path d="M217.67,130.19l2.94-6.84s-1.85.61-5.91-1.68c-3.81-2.14-4.11-3.5-4.11-3.5l-4.25,5.93s.88,2.1,4.67,3.84A30.07,30.07,0,0,0,217.67,130.19Z" style="opacity:0.2"></path><path d="M208.38,121.25l-.47.66a13.53,13.53,0,0,0,10.55,5.67h.33l.33-.76A12.82,12.82,0,0,1,208.38,121.25Z" style="fill:#fafafa"></path><path d="M219.6,125.72l.32-.76a12.73,12.73,0,0,1-10.26-5.49l-.47.66A13.53,13.53,0,0,0,219.6,125.72Z" style="fill:#fafafa"></path><path d="M206.66,123.13c1.36,2.43,6.82,6.31,11.72,5.86,0,0-3,7.47-7.22,16.93-4.72,10.58-5.17,11.45-9.66,13.8-2.81,1.48-8.72,2-11,.76-3.38-1.87-1.11-12.64,1.68-17.35A204.54,204.54,0,0,1,206.66,123.13Z" style="fill:#ebebeb"></path><path d="M255.09,151s-4.54-4.28-10.81-11.15-6.68-9-6.68-9v-3.55l-17.5,7.35s5.78-.62,8.56.41c6.76,2.52,7.34,4.38,13.34,9C250.12,150.19,255.09,151,255.09,151Z" style="fill:#023E02"></path><path d="M255.09,151s-4.54-4.28-10.81-11.15-6.68-9-6.68-9v-3.55l-17.5,7.35s5.78-.62,8.56.41c6.76,2.52,7.34,4.38,13.34,9C250.12,150.19,255.09,151,255.09,151Z" style="opacity:0.2"></path><path d="M255.09,151c1.31-5.52,2.83-12-.11-19.54l.11-2.62,7.73,5.06S261.24,145.37,255.09,151Z" style="fill:#023E02"></path><path d="M255.09,151c1.31-5.52,2.83-12-.11-19.54l.11-2.62,7.73,5.06S261.24,145.37,255.09,151Z" style="opacity:0.2"></path></g></g><g id="freepik--wooden-piles--inject-350"><path d="M96.82,281.36V392.72h0c0,1.25.83,2.51,2.49,3.47a13.32,13.32,0,0,0,12,0c1.66-1,2.49-2.22,2.49-3.47V281.36Z" style="fill:#263238"></path><path d="M99.31,284.83a13.32,13.32,0,0,0,12,0c3.32-1.92,3.32-5,0-6.94a13.26,13.26,0,0,0-12,0C96,279.8,96,282.91,99.31,284.83Z" style="fill:#37474f"></path><polygon points="99.88 285.13 100.35 288.86 100.98 285.58 103.46 282.95 99.88 285.13" style="fill:#455a64"></polygon><polygon points="102.22 285.93 102.53 288.44 102.98 286.08 103.53 284.16 102.22 285.93" style="fill:#455a64"></polygon><path d="M159.24,343.91a23.64,23.64,0,0,1-4.17-.39c-17.71-3.23-39.3-24.81-45.31-45.28a.93.93,0,0,1,1.79-.52c5.73,19.54,27,40.91,43.85,44,6.56,1.19,11.6-.48,15-5a.93.93,0,0,1,1.49,1.11A15.1,15.1,0,0,1,159.24,343.91Z" style="fill:#023E02"></path><path d="M163,319.55V430.91h0c0,1.25.83,2.51,2.49,3.47a13.32,13.32,0,0,0,12,0c1.66-1,2.49-2.22,2.49-3.47V319.55Z" style="fill:#263238"></path><path d="M165.49,323a13.26,13.26,0,0,0,12,0c3.32-1.92,3.32-5,0-6.94a13.26,13.26,0,0,0-12,0C162.17,318,162.17,321.1,165.49,323Z" style="fill:#37474f"></path><polygon points="166.06 323.32 166.52 327.05 167.15 323.77 169.63 321.14 166.06 323.32" style="fill:#455a64"></polygon><polygon points="168.39 324.12 168.71 326.63 169.16 324.27 169.71 322.35 168.39 324.12" style="fill:#455a64"></polygon><path d="M223.5,381a23.68,23.68,0,0,1-4.17-.4C201.62,377.4,180,355.82,174,335.34a.92.92,0,0,1,.63-1.15.94.94,0,0,1,1.16.63c5.73,19.54,27,40.91,43.85,44,6.55,1.19,11.6-.48,15-5a.93.93,0,0,1,1.3-.19.94.94,0,0,1,.18,1.31A15.11,15.11,0,0,1,223.5,381Z" style="fill:#023E02"></path><path d="M229.18,357.74V469.1h0c0,1.26.83,2.51,2.49,3.47a13.26,13.26,0,0,0,12,0c1.66-1,2.49-2.21,2.49-3.47V357.74Z" style="fill:#263238"></path><path d="M231.67,361.21a13.26,13.26,0,0,0,12,0c3.32-1.91,3.32-5,0-6.94a13.32,13.32,0,0,0-12,0C228.35,356.19,228.35,359.3,231.67,361.21Z" style="fill:#37474f"></path><polygon points="232.23 361.51 232.7 365.24 233.33 361.96 235.81 359.33 232.23 361.51" style="fill:#455a64"></polygon><polygon points="234.57 362.31 234.89 364.82 235.34 362.46 235.89 360.55 234.57 362.31" style="fill:#455a64"></polygon></g></g></g></svg>